<mxfile host="app.diagrams.net" modified="2023-04-22T22:44:46.942Z" agent="Mozilla/5.0 (Windows NT 10.0; Win64; x64; rv:109.0) Gecko/20100101 Firefox/112.0" etag="8fl_UjPbErvwWtgxSHmU" version="21.2.1" type="device">
  <diagram name="Page-1" id="03018318-947c-dd8e-b7a3-06fadd420f32">
    <mxGraphModel dx="1311" dy="744" grid="1" gridSize="10" guides="1" tooltips="1" connect="1" arrows="1" fold="1" page="1" pageScale="1" pageWidth="1100" pageHeight="850" background="none" math="0" shadow="0">
      <root>
        <mxCell id="0" />
        <mxCell id="1" parent="0" />
        <mxCell id="jwIwZIohR9LSqZSeyEhS-29" value="" style="shape=image;verticalLabelPosition=bottom;labelBackgroundColor=default;verticalAlign=top;aspect=fixed;imageAspect=0;image=data:image/png,iVBORw0KGgoAAAANSUhEUgAAAR0AAACNCAYAAACKe66MAAAgAElEQVR4Xu3dBbh1Rdk38OVrCzYYqISKit0tBiYqdhcGdqCgCLZiYXcrBhZ2d4GKiCgKio3YiajY+n7+lt//eedZnL3X2pwda++z5rqe65zn7LVnzdwz87/7nlP9739aNbSBAgMFBgrMiQKnGkBnTpQeXjNQYKBATYEBdIaNMFBgoMBcKTCAzlzJPbxsoMBAgQF0hj0wUGCgwFwpMIDOXMk9vGygwECBAXSGPTBQYKDAXCkwgM5cyT28bKDAQIEBdIY9MFBgoMBcKTCAzlzJPbxsoMBAgQF0hj0wUGCgwFwpMIDOXMk9vGygwECBAXSGPTBQYKDAXCkwgM5cyT28bKDAQIEBdIY9MFBgoMBcKbDUoKMqx6lOdaqaYOXvc6Xg8LKBAjOiwKru6aUEnVGLsaqLNKM9PXS7BBT497//Xf3P//zPEoy0+xCXDnRKYDnqqKOqz33uc9VpTnOa6sY3vnG1ww47dJ/58ORAgZ5R4J///Gd16KGHVocffnh1/vOfv7rhDW9YbbXVVtWqAc9SgU6Ib3EOOOCA6glPeELld+3c5z53ddBBB1W77LLLyi1Sz87GMJwpU8C+/vvf/1496UlPqp7xjGds6v0Sl7hE9ZKXvKS69rWvXf3rX/+qTn3qU0/5zYvpbmlAJxLOb3/72+rhD3949cY3vrG25xA9LYZFu+IVr1h9/OMfr85ylrOsnEi6mO0xvHXWFAgjtW933XXXet+mgvA//vGP6hznOEcNRHvsscfK2C2XAnSyMEcffXT1gAc8oBZBT3va09bo7zOgY6G22Wab6h3veEd1latcZZB2Zn1ahv6nQoEw0+c+97nV3nvvXZ3udKer/va3v9V9MxuQ5P186EMfWj372c/e5DiZyssX1EnvQSeA84EPfKB60IMeVB1//PH1wuACaUAHAF3wghesPvKRj1QXvvCFB9BZ0IYaXjsZBbK/Se53v/vdqzOc4Qy11O7vmr3td+B085vfvHrNa15Tbb311ku9v3sNOlmQF73oRdVee+1VAw3UBzBpsez726Me9ajqmc985krpv5Nt4eHpZaNAJB3M9Ha3u11tRA5TjZplj/tH6rnMZS5Tvf71r69/Rgpatjn3FnQCOETKRz7ykTVdEd7f2XIsSCQcn+25554VETVxO8u2EMN4Ny4Fste/8Y1vVPe73/2qL37xi7X5IE6SAJP97m8k+be85S21DXMZPVu9BJ1SzyXhxGYTkTNiJ+mG0fhpT3tarXoNbaDAslIg4PGLX/yiZrJvetObNjlDsu8x1ADPjjvuWL3tbW+rLne5yy3dlHsJOqj4vOc9rzasRboBRGsh/ktf+tLqBje4waBSLd3WGwbcpECAh02Hx0pISCnh5/kYmLfffvvqXe96Vw08yxQY2yvQCdEBTlSqgI2fAAjak3Cue93rVq9+9atr4/EqxTD07SiG/mVU7EDv2a1SCR7izh784AdXv//97zfZMpuM90IXulB18MEH18CzLKpWb0AnG/kFL3hBbZ8BLv5FtCyNaXe7292qV77ylbWlvyvCey5egPQ1u62zGj2X4OJ39oTTn/709eRiWxtsaO1rjXYlWLR9owT6L3zhC9Xuu+9effe7391k50lfJB7OlYte9KI18FzqUpdaCuDpBeiEiAh3+9vf/mSAU+qy97jHParXve51ExmM1+IAA7cev/XLYMz3vOc91Ze//OXqj3/8Y51qIjx/5513bjs7w+f/oUCTKU6y77Jvv/KVr1R3utOdauCJC71UtQDP5S9/+epDH/pQHZnflREvaoF6ATom/7Wvfa22zYg4HifhUKlY9rty2DJ14hOf+ET1u9/9rrrSla5UMcQNbTwFjjjiiFrN/cxnPrPZg+jP3rbvvvtWW265Zf1Z1/XYiDRHv5/+9KfVTjvtVIPDJC0A4nxwqX/ve9/bzGuL7pF4bnnLW9bG5UnOxyRjmdazCwWdEPSXv/xlnbCJsAkDz2f+jzvc5S53qV71qlfVKlXXTZ4+uCL32Wef6vOf/3z1l7/8pebWj33sYytq2tDWpoA1uepVr1odd9xxtUrFuImeNrhG1Xryk59cPe5xjxtIOIICJ510Um2Tef/731/bZUTM28f777//Jo9sF7AO4zzyyCOrO97xjpsknsSrlZoARsCb2+e2MNApRUCEDEJH/0W0uAfvfOc7V6997Wvrzd9FdCzVKfEMcrUcovTpHWc/+9mrT3/603WQ1bIY4OaxkUJfauwb3vCGmubC8rfbbrtq2223rdWsv/71r3UAm80uJUW8yNBOToHYJ30SL6zfSfQSOUnbCQBsA58EApI+nZfvf//7mxmX42TRn3UDbn3d1wsDHQcfobkFIT8OGkNvFskzN73pTav3ve99mySgtsWJzvyHP/yh5sTPec5z6t1Q9n/GM56xlngOPPDAOvS8r4sz74OcA/Cb3/ymBmNAjTbE+je/+c01Db/+9a9X17nOdWr7joOAsz7lKU9ZmQzoadEcLa93vevVpVcirQcY0I3U8+IXv7i61a1uVb+yCzMN8BxyyCHVbW5zm+rXv/71ZjaevEc5jA9/+MM1M+jS77Tm3LWfhYBOCCHG4A53uMMmD1WZbwI86MCkEcaxLi2A853vfKeO7KRLxwsWj4B+wr3lu9z1rncdQOf/E5cKRYJhsLzWta5V/epXv6rpR4W60Y1uVP35z3+u1VtMQo6bz+55z3vW+UAR9Vel/EKX/db2DIO7/Wvvhcn6TmmzRFuqPrp3AYjscUyANKqVzDraAU/WJz/5yTpPq0u/bXOZ5ucLAR0TgNJXv/rVazExhIqEY1Gk9EvyvPKVr9xpvmvpvcnTKkXYGN2oC5/97GdrtWGjSzrlpsRNeQdFgpNmrA3JkIrFS+J360NS9L1rXOMaldy4RMZudFqWm5VqzzSQGKcyhaf8233uc5+KKnamM52pE0BkvQAWBtC0g+Y8PexhD6sl/ZSA6XSQ5vDQwkCHgY1eW+ZPZSEQFffERbts4iwCQzHX4o9//OPNYhoCZuEKF7nIRWq9VwmMof2XAqQY4PHBD36wYnhn+AxXbhr1m3+/wAUuUF3hCleo10sm9ND+SwFSichi4ICGZcZ4JHBMkITJTvPyl7+8OutZz9ppzzsX+vc9GkN5jvzuH6lUuINA2i7naF7rNlfQyeYl9hHXtag9QWOcNtniXbJoyz7F+HCJJ0w8RCz/f4tb3KKSOkGn7pvYOa9FD/gG5InqbGvcsWlJqi0BO/QqVdXyuS222KJWy174whduCknYyDTO3AG53MAf/ehHJ5N60JeLG/Dc7GY3qx0mk6hEP//5z6ub3OQmldK9TeABSjSFj33sY3WOYps9dF77b66gA22J6VyxDJJllbRY91n2LRKgaNuwQW9GM7Yh6kAJMKUrUTwJtzn9OWDXl0WY12LnPaGbmKj99tuvju6O9BJuXCYZRj0txxmwCbPwM1nR5zznOevcOVJnDPirVlx80jVTuuL+979/beANzdZyeZNKeHIBT1vLOopajs0t9iJrlrNABXvMYx7T1t3cPp8b6IRANvnTn/70zQAnhx8aQ2XBe23iYAxqojUR3AFqiq/RbdltXvayl9UcYaMDTuhmo+K+iY1qSp35f9tOLMEnwBXAuve9712rF6tYXLyNLqM+t/+VawnglOAe7xMV9e1vf3vt8GhjjGHMT3ziEzd5EfWd8+NzapZyGTySfWhzAZ0QQIyHg3/CCSdsStwMURGHiI94XSUcRmhBhYnSjBW/5CTyUnAOBJ8kBL0PizOrMfDqsQVwiRPtU4WxXItJ311+t5QwrQ/1TVxU27pO+s5lez7zZzQmdaM7WsWzFTuP/z/kIQ+p1dQ25qtPz2C6wkvE8ZSpEpF8uO8x9LjtF0m7uYBOXIas9KqepUCRv0et4v1gCIbu40TxiPqIfNvb3rb2QJVeqiychbj0pS9dvfOd76yLHk0COKXtItx7kYs0jXdnTiQcdGMLiPi9HrBpjq2UfGKr2G233WrgYfNZlVbukTZpJHPOOUB36TzqHvMCxhaTvev/AInn6RGPeEQr8ASYPvrRj1a3vvWt6+BNrZR2nClrwO45yVmYxXrNHHQy8cMOO6y2otP7/S1/D9IDjy5JhFk41fEF95WlHUsJhwFNkXaelTZuURJ2LW687Bw686eK2pTsCyU3XMtms57NVgJPQhQAHYkzB2s9/ffxu133WCQT9OdSt4+lS5RVMQNi/qaYF3tlG1Dkc3ajV7ziFZuZLwJqrrIh7SSVpStYTpveMwedIO697nWvTVJOxMpsSGkKSo12PdzETjEIMVJGLw7nFhgl49aFZW2LFYKWm4baEW+Avs51rnNNm+5z6y80/dOf/lSH3wP/UtKc1UACPGU8inudHv/4x0/EBGY1vvX2e+yxx9Zqvb1xyUteso6x6brXvDvrAngSFZ+z4mf2MqZpL3tHl/PBe0tr+MlPfrKZtOM/wEdAbBcQWy99xn1/5qCDUIyVYmJK41kA47znPW8dOdz1BgcxJIIKHaKSO8QId57znKeOlp0kpyquecBjE7AtsRdpF7vYxeqYHsbtZWyhuXSFZz3rWSdTRact5ZQ0Kjk22vIg8t4IKOwqGfSR5hIqgWdoKwwDoMZQ2wUcynm5TODRj370yZhB7G3UU2YCoNFFOuF2Z8QvgwbTF8bz7ne/e6Gq7sxBB3GT0FnqrvEsseY/9alPbd2EcbczTCafJQcmxOX9IsILP++68HlO6D/XIoDRLJJ+ufhxDsCo/2VqmZuL3ORPEeOjnkYSmcd8SrUXeMu65hJeRlVLWgOjbIzl6IdpSdXhlhb02vTojaOxfe1597lRi5r2yTBTgbQPfOADOy2XwM6rXe1qlXSg0lCdFBWeMTlfXc9Ip5dO8NDMQeerX/1qHZcTD4mJxp5AdKRj8jCN43z5DIcRZxOQKb/jbxbmvve970RiLlq9973vrQMSLVLig8LFwiGOOeaY6uIXv/jCFmqCNd3sUYmvdHnSZnl9zywlnKa0k82d94vQ5aVcJmknc2DYpd77f2gYM4F5q2nj80lsiejA+MvImxi1VFuIt+nMZz5z7fYmebeBmO+I6Oe4KVXpqGzXv/7160jlRRn2ZwY6WST6aq4ADrGC3rHljIs8zsbk2SJmcreXZQLiEpT8xrDcRa8uEV6mL/elNIC17huKJ4EkRAVctoYm0hOaUdrznEc4f5gNW5uCatJRFsVtJ51/xkn1Vr2geUNJVB972R3k1HT2wC7zyx7/wQ9+UMecUe1zRkpv7C677FLTbVyf+Yx3UrwP50EpPeV3jhvR44toMwGdTFyJhMte9rLVz372s81ETp+z5UjRV1i9jYiARH0QYmEZVxLw0YcYIEmibS3cieSF4x5wwAH1V5rJoTaR/j3H8CYJUrLjMjWh9cIGImZHlJ+XlNOUePw/bnQHl9TaxUbRJ5p/+9vfrlUXzK/JpMr4JOqWwuqAootEF8aLQWOgzbgnNPA3hezachLDeOXSYexhzBmHn6QgfS2izQR0QkA5Toqs+38zFoTu2xb8VNokoLZ+/C2HJ8Ag4U1gVJeWaE3BV3Et+l48YOXG8Xd1S57//OfXnrAuXKvLGGb9TMZpflyo4ZalSjDrMYzqPxICpkN6FS2+bI0xnJrFg9X0oJb2K4bzt771rfXe7AI8oYNyKwCrTBOKDTS5VNStUfFsYSq8sIJxm6q19wjWJFlJMJ13mwnoILCJs+qXOqrJxabDRsKW09Zwa0YvbsNIORY2erRQfuDVxSiZhadOkXDGbRgJoYzcjHeTGAbb5jOPz9EY3WxQ3r6MfxESzlrSTlQH6QBKaCxjc2A5HkjAWrO8RP4vD423iMeuC9PyjDpGvL3iqSKlxLbjp4hmhudxpoQwfjWuBRmWnt4wH14uUlOXcU1zjaYOOjnYwrFJJ24sjNcqC3HNa16z9kB1adzfOEWIj0ABC3f+MES7dKwr4bgnuY8zphzEUnemVwMlqkmAclnUgNAfXQQCloFnXeg9j2fCoTGdb37zm/N45VTfUR52Ub4ii0XIN4En0gkGxmOnKHvXfSooUA3v0vgfRquMiFpTwkNG9Ze/Mztwk5944ombVd/0uQqQn/rUpzqPaVpEnDroZEFwAbEMIZrDkIPOuJmqZ+MmgjBicr70pS9tAp1SypE4Kr6hzXicBWATUlQp6llUqnAR/dB1BSoSX9v6ndYiTLOfcDhqlezx0ui+aEnHPEs1237gkVnGGKhSXSrrFpdJx+YbAz6vk7CLLlUwrZM4NOEh0lbSh7UM8EhgVh2zzR5qDJg8OpfSjvGTwoAO5toVDKexV6cOOgYF9XFZ0kxJMBM729nOVov85zvf+caO37MWKTEReTiiOc8A3RoXKTdzs9MQkzgszcJVIM2EuPTJsMnAqU2ig09jIabRR+bKgI+7lbp8HwCnXMOMh22NurCM9C6l4B/+8Id1KQ8MsnRTlzZCkos4sLa55nMBgWLcEmvj72Hi6h+Lv+pik2FbZYZomiCsAalfnFyX2lXT2KP1Wf3Pi/93Wp2FWG4IEKCXa0u8IvYYcTTc1Mn/WOvdOTwWMfk65XNAgvrDMj+OWPohrXCHi4GQENcEnLjEBXaRzsqNNC26zKuf0ELOmVAFgY0B0HmNoct7Ymy1X7jNpZzkdoku3+/bM9n3KlayY4pNKyWeUu3iMSJNj2s5kmKsgA4TQ4DM98Iku+YrYkJMEfqLpBmtAyOmis/zrqypgk7AAqjgYLkvqdxkAvFUSGtDe252uiubUGwAQXy2gMMPP7xWgcbZWjIehjQGtdKOU9pwGIuN2fOjPAJ92+hrjSfqIAAVSBn6B0j7NIeI+rwonAQCSNv2RJ/G3xxLxs6lLp5MmELpfYoxn0pDA0iQ36j9GwbC+yWlAQOxP2Om8JOXKxH0bbQRciJ2KLbRnAVeWWeSvWle9J8q6Ji4yEoTZLGPIS0qlnt+qERQd5QOGWIz+IqjSWRmiOp7SZ0Yp4eGgJLycrOBTZDqdiE6l6Kx5o7utsXr++cl/ctI2T6Nuzxo1kRIghCKZbShlXTN+F2KJ+pXOkLp+QzTJL0AgDY7is85AlRnYDfKOUqf0nKAWxc7EXumeLPSqRPgp36xD81LxZo66LCZCAiMNd/hj2pFxWGVH6daWURqGQ8Sm04zdF9fuAmPVRePEhXMpl4rqBDKe8c4EOzTYW0TydEDyPL22YxNo2af5mLDhwkkmnxem36WdAjwSMkBpJGcI0X7qZIfRscEMQ5o8xkmqwJjCWD68S81d9rmZF+QrvI9zydQE+AoCt8Ggm3v6Pr51EGHtV1MQjZ8vE2AhMEKAUdtrhCZriooT5p+9NcEle266661+7FLU4eZwS1xQ5F+ElQIANV5mZdY2WXMp/SZ0E5CoijYiPbx0J3Sfmf1vewLe4GHUrH+rje4zmpM0+o3h5dkQcKIdJGDLsqdhM1QLMp91GGPbUdMG/d26ZaPlGJ/MzW0AQaXOUbO0J3xhKE7r8aiTEdbP9Og0dRBR8CX5MkSLBwI9UYYhdlzRqF7wIjLWtDYWsYz+ieduUtL3lfpKozKh7uq3pacmS799fmZAGfKGpT3j/d13GFMpFa3uKoZswoMIPQW3MdW4sDHqVGGZ2CebfbN0ANIcYQ0pR2qFUa/ww47tLrPnUuSUdTu0J9HmSeMDXUe9J866JBQiI4xWAVNJcEh2rirX7IwCn6RQiL+hWsjMDdwFx2WIZrBmU6s6TvSEmMej4ANsex2hCagSEh0zW9o11fAiXMB/RmTDz744FpCW5X1iJSSYNTSjZ7fMUWxVDx3o1okD5HPDMqlmuZ339UHJjoKMPJ3Xk0lTkpmHgDymbO7dKCDCBDX/T6xt2RSopNxs1GbKsT1Xeh/9NFHb7LnxIDGhY6TjzP6ph+qXBIKS+6AqCJIxYasygbPhjUf+rmyBvOoDrheQCu9krwwAjdXZU2yD9k4SSn2c6TsSDtUK+71LtULVAJ0tlJyJd7XBLRyxVPbrHuzBUiEJojf4kKPJpKk1STgrndNu3x/qpKOBLNtt922NgSXrmeTThzMKHtOCJOL+CIp+TvC6JOVXc5Jm95pIURZfutb39pMHNWX61C6uCy7EK9vz4hiZaMSd5EN3rcxluMpo8up1G1xV32ey1pjy14XOc+WuZa5IHbOtrnZ8+w3PGPNWBvhBtSjUfVxcl7YhEg67H7RQMLQeZwx9LVAq21sk34+VdARUg1JI1pGrSGZ4L4m1ia+0Tn33nvvWpoRmxDw8hOxhHS3iZFqjkgSTUnTcjwkLnahtnFMSsg+PO9+eAZH+Uyl8bIPY1trDA5PvIrsDTw0q+DBylyzx0g5PIqCB8u0FM+xY5V3j41bK4nKSs5GSklfcrBUWlByo01SlOCZG1kw8uwTgMb80aU8zHr301RAJ0iqfgfVRYv45zMTEZ8jx2aclGLDiViWmxUEDseWdctWpCTCqD6yYYV228BNacu4EJarcpVaqZqqbuhak0iKfZ9nQAdDchis9yq1AI8UCHbK2BXDCO1R4Q1qQrU1zBRTj5QSs4E+0A4NR4F2/q6Ws39lxQZjUYaDl0zFwzZNom2cbZ9PBXRCWB4n18mmBYlNBNqLIB7XhGkLI+cyD9hE57RowGhcbE5c43RoC9Tk9vK95Mi0xQm1Ea2vn1MblSZtFiTr63itZdaIioBbj8uc7us8xo0rkodsdA4S0nsZDe93MT3jzAYBAd4wzhESSlrSeKQFibofZdcJ6FChpGHkHMXB4nMS8k477bQcoBOi0BdZweNtihgoKIl9ZZRKk+8rsUiiIYbGnRd7DtGSbtxmE/IehmgJnmX0pXfwFgCuVW3qCimaFrovwzyzRmJE2KImucVjGeaXMdrbSetpur3bVP6cD3V25EoJjm2eDxqGINhR6lX+riSGiGhe3Wa8DkYtwXrWbaqSDsAQqBTQiYgvjJu9pw101IaVAJhFMflErcqNkik7CslDVNySmCkdIOOI1ITb8ICtauNSxcn6HIncpL01yvoIY6D6rpq9LaDB3pabTDJHP3mvqFhtag2gENXPVFFqAiQf7m77e5T7Pe8THKgCBBAs1TPnp2vJmfWen6mATogFMBQwL6ORTXb33XevK6y1ERUwidUoy2H4vrBxuSoq7Y9C8oBR7Eop9IVAIS4O0cU9uV6iLuL7aCvuiFGyBO1FjGXSd8ZpkGtW2vbJpP0v+vnMR30pMVRRbcKU2Skx67aSuPoh0WDAMTt0tXlmDMwLjNo0gtJu6lylPtWs6TUV0DFIaEuNMqlIGP5usnRNOmcbBxNrIM4khIz4xybEiDwuYjJgFAt/1LKoGlz5UH7VbAbZIH/84x/ruTEih+6z3jzT6j+uZNn+VMTSATCtdyyynxx4jJMU3gRViZuuhCEJtZ0R8WVU6IBOaTclAbVdk8RtLh3CLRGl+cF7eRAFM866rRt0QkDuWqAQt6C/x0IP3QXqtXEwHqeUEkWEEAWYqbXcFuoNeBiclQNIRG6MqlQ8C9tmzJ41wWfVP33cZkK3ZZJ0yshk+0e8iQjlVWwOOhOENYoE7nd7VCVABt5RknzAyN5mIoh0mDOCZmxiyTVsAnfOHkM2u01ZkTB9JPFz1rRfN+hkgOwxYmhS/yaA4yfupb5OW1N6FNIGvUOMVAnkfVqLE4SgvF8p1hXumYhoCyqTdtVcspm72wl4DkvPSBu9+/J5InSNXdRsG7fuy7gnHYf96WZTWkHphbWGXZOhSfxsMkwO8YQFwFRMcAbbov6ZMJgy4jbPeXN25EfOuq0bdLLp6YikCVHJUa8CPBIrkzcyzuVNvIb4AZv8ZKsQXyOaeJy0JCtdRG4iLnm6omY5lAIPV60FhF197MBGygntl2G+cZ1br0SdL8O4Jx2j+ZFIBK2Wdh1rlVK5bZIOiZ931r7OlUwxR5AS1fFpC54VUsJo37SdSqQWODvrNjXQEVhEbOPWa4IOIzJjcpt6Rbwri4mHKERSBB2lGpUuRVzAfUpB8fwkRTGUrVLLvNWcRvvk1JSq7bLMN3tGMXKVBFexAQlGY+vUNCbHntJW9oUKRY0uAwRjt4z3r81trjwM+08TdIBZ17Ix61mfdYNOUNXGJ7ax7TRBx62FSiu2gc4ee+xRl5uIuBfAIDLKyYLua/WRv0muk/7g2o0QNH24O1sG9iq1bFBqFWN97DmxGSzLXEvpF2MRBNel4PiyzC/jtF7skpI3m6CTJOQ20CHFYzClhziSDiABSG2lY3ivAHsTdIARSWrWbd2gU3Jbot1akk5X0HFtilspy6Ali6DIUJciT8pZAB3ux4BN1Kuy8PqsiTqv/gP4pDu6frPK4rzGMY33hNE4jOwKAk1XrQEDbnF2z4BO5p3gvrZM8YSVBHTQKKBDCpImMUq9ChiRaHIJpvOVMSwN6GRjiM8RLbmWIRmQyKlqk3TKnKnSe1XadNbaiOlXTVqblSenKelQ3dgLVsUdm43FjoNz5WqdlD5YtgObdbGWUbHa9suyzdGtJGo5CVxtGpKVllATvE3SIaFY79h00ACd7HeANM6QnD1DGgJQTUlHgKGMglm3qUk6Nr1rbEkbTfWqax3XZJg3JZ24zCXFjduIuISaLAgX71X6YmBWs4XVfxVauJZbHxghs4GyCZdtjqXrnMOAJ4YXSxvnfFimeVIbBafmcoAEB9qjglrHXRWc9SYFSmNIZcjYcyRVA5JxsWw5Oxw+6BttIGcktapnTdN1g04GyHPEg4KwzeDA2FPaOBeDs6S4MlISOgvsE2Oj4HtbKgXXeOqClKn7boRgJFsFW0HoyCApSjuG83gzZr1pZtV/3P3ml0vg2ko1zGoss+j3sMMO2ySJlECKEcoSJ6W37W/eXV7eMk7Hd7bbbrvaTiNhc1yAISmLGcSeaUo6+hUVPus2NdAhZciALSOSg+RypoRut0VbAgVZ5tExg+JiGxSOBhxt+rDtngkAABWYSURBVGpUtPLOLZu4vFm0DfxmTfT19h8aCCPg/gzIL5sBuaRDXP05CDg2o6mSC8su6WS/lTdtRoKzZqQUrmqqUdveTEGwZhqEonUqcwKfcc4WIS3U19z+ilFF0pmX3XMqoJNDIIgvZRlzABCAoRNojCJo/u6+5dwkEQOXzxBYMpt+2izzvF/sN2W8SgxtojAVOlqFBuQVZDrooIM2xSItUyTyWmsQScdPay6YU2WAZZd2cj5SQCtzD1NN6RfpEOOafh72sIfV0kjAOcGvbtSQ7Kx++FrnLGNQvkI8jioMZRCu80bFc23OrNtUQYfYxsvUzDJXKwWgtEk67uYhLUVCMvkQVcU0FQXbsswPOeSQOuM2rvsYpP2Ut9IlMnrWRJ9G//LI1M6xWUqAn0bfi+zD2mfNhWAo2E5KXWbbTkCAecC1SGEO+YkRUnfapBz5ddRpBuPSUWIP8Nom/Wet9cvZ8x7nI0G85flwXQ7b56zbVEAnxMKVVEdrIrnL7HLN6rgJcbeTdIBPgCsub+504mmbtKQP1nlenVJNQ1ygyNi2Ci1u8ojGqzCnct/EJewgLfPdZNmv9iMQLe+uynyZH0gZbUyZk4bdtGSoyTFMcGFbYCAQT4XBMPcAGEAiMc26TRV0GIyVQmyGeCvQxFqeGwZH6egypBGE0TjcLrEn4g8gMUPwKOAJwaF++rCQidAFYMRKOVzL3KiJ9P9w/2WMQB5F/6Zthx1P0Jt705bRttMsE1pKbFk3wOpivrYGuEhLZWBggIOBmVmhrXKg3EbR+bEJlTQlGMzjttupgs5aqfsIa8OQgIBBG5qLVZD8FgQPJ0cMAU3UrzbQkWBKFYtrMovpe6qr0YvbRNm2DbCIz9HOP3EaJLZmaMIixjSLd5aBcxiJvYMZLWMzfvuQwZ9hvLwRIg4OjLBLZj27psj+ZukX6icJhiTfluxJY5Bq1DxfDNC8a/Mo/TIV0MlmKFP3m0bN/ffff+yVwgEjhLXBSu9TspC5BMcltGUcwsyl+EdvLUFHcfhDDz20lqSWiXNmMwkrwNESBLjMHqs2aSegKorX/VC8PMu0ZpFyMAiSjCxzLXsd6MjsJul0adQwEk0M0JF42kq/hMGyCXHLl4GBYerzLP0yVdAxKdbz3EaQgC/EZ+8Ri9AW5g0QAIvntHivpPFT3VRfGyel5DNlL0Uml5vUYgMbEhk7wbJ4RYzbPFxEyN1Z1sgNjbps2mV6phmxK3BunE2vj3OLZCoaH7MopZxIKzxONIC2Zq8KjlWvKgw9fSj+Za+HOTf7ypmgPkmBkD3QNEQb47wi9qcKOiZLkjjiiCM2HfZMDpLybI1qIYzarSz0kjZD1Nh1eMFk0o5zLepH40pW0KvcvOmPfQja5zD3nXuGM7qMjgcuNM1c2zbssn4eF7rxuw1TLMuyXD2cNSP9AwUpEOYTRmftSHBUmnHXKmXteH9z51tJF/0o2/LsZz+7NYUCQ3cOs+/9ZNvB0LteZDmNvTR10ClFwBAeoYmA1KNx1f/Kw8X2EmOXiUakFAfkXvS2JhpZwBRUjzRQ2gpwHvpx36Wd0EQV/9jEzCcbZyMAT7yQ0mxS4qTvNrkYiTE+JoPynqk4SZgcBOSNa1l/VQRSDyr72Gey8klLXeroYMT2fGlEDm0xYYDeZnNtO3ddPp866Mgop0qVIdYGguhyn+iwbReC0XHV34mKlVgCAIHT50K/tgm6VVRaRAjr+UhNblYU0duFy7S9Z5af27zy2khn1KqA7yzf2Ze+y3iWSKmYGoaUtezLWNcaBzAQE1Ma/O0/+5nBlkd3xx13HHvQrb/naRC5CTTA4Kfv82q15RQ6cwL/GJEDerHnMCLzEM7jzit0mhrohPOoIOjuIgARLhxLOY+SIL9RaJo+GILF2oieLMHL51yG1Lcu2eJiIiwWW0hE2zL4jLriDu2+cs2MixFSuEBZziDSW58P3TTGFuCx3v7ZDxgbm1xf18285SLae8cdd1xNhkimOfBtZyHfMWdeL1HEuSa7XHtJml1uWhHbYzxyI+Nmj8Tj3i2Mngo7jzY10MlgTzzxxBowRMyW2eJASMyFui+8EG1u71zct1aNmC5XAwfwcqNh+sl7/d/4SF99rN2ScSrQRWcP4Ky6OrXWpi8Npw4v6dQtsH2+TogHllpVSjlZQwnMDL/GP06diepfXkkcb2X2gXg0+YptTWxXUozSR4SBqHnzMjVMHXQQQ4U+N0CUhZ8RBbIyJot6bIucxM2oRlSspidDzIOYnXELlkPLSMYWQnzMeIwlKhcAFFbep5slQxuGU6U6ZAaX3G2jAw/6tJWwbTuEs/g862bv87JGlcp6BTwxErFi4w559ra0CZJIblkpQySAL5ulOLi2JnBXzZ6o5wFDwbakaOr7UoJOCMXDxDWXCSJ6ULXrhWrABhAce+yxm91E6B2CoRgUFffS9yhVK0SUj2U8KYidhYuYKVHVmLfZZpu5GNLGbZBys/Hi5e71Ul1t22Cr+nkzaJB9UOAgCaKLuj1LusROKSyE+znMMmpVzgJp3y2fbaphE8BKd3v6SuGvLvOStS/WKS1aiL8zIncJTuzyni7PTFXSCSHXukUwthmoDVnHGb7ST+7Bioswf7eQidtoQ+d8ntsVm9wnC4j4DH9E37YN0YWw63lGBUSlI7lJs9kypo0o5YSWpWE5DEMEu8M3yjmxnnXo+t3sMYCjJo04tdLgH0DcYostavuMvTaulbZNcVlsmzGkJxaHdMOwLHanrbkeSiS/ceYsxcapfhWHyzzpN1XQiQoAFKhGFqFUaUyUsUoN41SFG0cwyZuuKk4kp8VAfD+pRVzwjGNtbj7PU7MYH6llpZ5tTFlQRmpVB6VcLKKZh38uUzOOph1qIwNOE3ismbWjsitngmaLZBZsg1IMqMIl4CRA1oF3g61z0dayzmrncKmXjCcJ0KLSJYn6bFQLPVSWlFpUMm+fifpHu3mHjkwddIKY1CguutIAGpGO1CG6uEtrFmsvQULZRpZ7xOsS4Kd+s+AoKluZnV16tNgKqFopp9BljNN8JhukNKAHzKf5nmXuq1SzwoAwE3E8iwAe2dki4AUAjtpX8ZS2McisC+nEfDBccwJakXLsDXFbYnPa5nvSSSfVKUHCLUpJ0fdkD3C3S8ieZ5s66ISoJklFkMzWdPWKUUDUNhcdwggGTN1X/0//4XRUIgmQbYuZxREByrtmMaPyIbgFid2Jh409Zd6Np801PGkbJQBwPXTOGvIEYRak1DaVez3vK7+bPcW2JOGy3OdhZIJUOTKk3mCObSCRzxX8OvDAAzcDsWgN7JPex0Qxqr/QgEPGRZeEgSboiCHST9uYpkWvTdLqf17437yBKbZMOJXS4inKpL2y6wV8hrXXXnvV8TSlqhaOwhPGMyUys03aKQ3dxHG2k1KF0b9nBCAKQptHy5iIuSRDamCTXvMYx7K9I2sdldueE6nO4wd42pjQNOabd0jPOfLII+t3hlHYS9YSQ3TwGWq7Hm7hAO62SvO97Al2IUxxXEa57yUhmDs9183EppMx8tpK0Zh3m7qkYwJZDFZ6RE9QU2kMFTOAuNEz15p4+mGYRhxuw9hfSl056lqXRc0zvF9iKQRN4UAZN68DA66NNOsWkVlZzj333LO+47qMnp71+5e9/7UMy2yFDiVbYJf9sB4apH92F7dysLfEQEuy4DRh66Gqt40lvF9Aq3QErvLYHo0x+0LMDltpl/ieVNHMza/Zb/qTIlR6s9ZDh0m/OxPQMYgQGbg4xOUGQTCITUIZV2y97Efeiepo8Vqk/4CPotTid9oWtwRFoMe9Kfs2TYEj3pBxBrpJibzW8xknT560kbhYw40y92m8a5X7KPdVGJJwftxdnt88JB6HWjwVRpbm/5Iou94+EunDfswttwGizNGdWYL8EhQ5SrLPnO1lRbvWcrd7B7VrEW3moGNy7BSl5TzWfbqwe3zGAYXP/BPpLIBJ1m5pZM2CEKkFHnZ1eWdhBFeJDqVqQX8uSpt3Ho0Epz5uyk+Wevc83r8q7yiBJ2kG0gNc8hjpY9ZztX/YlFRJkA/FsOzdXVr2IjXMWfF/zKcETL/ntoZx56W0qdIOcuNubn3wXTZVGQOy3Lsw6S5zmOSZmYFOBkG1Agi4QZA7oiJDGEOwg94lOpPYjINQQyKxlN4sOUpdCyL5/rwMjqMWBFfjRo0xNIdnkgUcnv0vBUK75GfZazw8Dv+sD9ao/ru8N3uQquMcAInSA5azQm0UasL50iUQkrdMYmzpbo9NVFqNHMgu/cxif80cdAw6buCSmCEADxfgabPsB8FjVC5d8UkGhOZESvENXYOd9Ktlcee1ENz322+/fa1WBYxnYNOfxZ7pbZ8Bnuwt9g+SdleJYz0Ts3bZo/nZ5tgIKKkiwFsqkbn0qMZF7myQ4rvaGePxTRR7xhNAZkAmYc9D9VyLpnMBHVnjUhZOOOGEzWIOEAE4pHpaFyLwCDC0iY1oAk+kH3os+09X4FnPZjul32UMVL4jXNrPAXROKTX/73ulGk+NcJClt3SROtb/9sl7oJYJWgUqzRifSCnsmRwNXecQF37pBY29ix2H4yIhJ5OPeP3fmDnohFAqmylEVIp7sc0IXlJbpEvimikfc8wxNfBQ2bS4B8MZbDy1ZEV/dl2o9ZOyWw8ZTwrQ+//gsepGuy5PlYGD9oXrjBYVYT5qvNkDggnZnkSfj4qSJwHJL2OKyP4eRwceK/eh5R1+JoqfIZrdiQDQhcF3ofcpeWZuoOPOHkF5ACOoa8A5cIx+bBxtrYxrYXSLOlSqSQhN980NFH0CnoyFm19JgQF02lZ8ss+boMNRwNvTpz1gRvaruCzMESMuE3pzPoybKuQG0K4gAXAATxnHFI+v90mdWLQtc+agE0kEIXOX81pqkVgGFvUuNVICMOw3DGJJ4szfI6byZIkVUhmtbw13U8enjMUY1Kv1rVJsOuHsbGZczML9+9Jy4DkQMFn2JmaA0sniGbmFHCc777xzK+DEjOAs7LPPPicLktU3GjBEA7BFA/BcQCcEdVtECnyVKkWQWJSl+AqbpqvbWuKbEozl4pUGPJzE4i4a3Zubnm1Kgqk8sNJ75bkBfCaDiCZXZ3iVeClgb999952ssxk+ncNuLyapN6k3XhtmSUqXNiGauE3Cyb6W3kMVi4u8zCjXR5ebVGY49c26ngvolNKOuByRwKXHptw0NgoJpg0ksoC8P7wU+m0Cj0V08Z6k0bb+5kXw8j1cutz8dHsHpfRkBXwGN/rJV6YJMnkizAqgu35XSkQfOHtzBtZZ6AdJBsMx3hh2gRBGydbTpTkHkjrlYwl2LW2mMT2Q+EU4SxXqQ5sb6JSTTSnSECV2DT+JlSKVGZe7AoXkTRZ7ZUwTSWxheS1EQyN6X5uAMGEAAgS10hg+SurpKgl1fW6RtGlzKxvbqGdKQMbNM19R7myE8yo0Pgn9sqdJ56R0YBPg0Q9PlTiaNgmnZEoi6FXrbJZCiQYhqZOHrC9tIaAjLkEJCT/XcusxhuECKS/RZWPyZDm8cl00yX+Co6hsfW2R1hRjkg5hc8i+Xwaw6BtNeT7VVlIbhlqy9dZbdzq4i5iH9SXdAhgxZVTBrbbaqgYOicYAp6t5AVNlstBHopidl0RmMy1wkY8D73nTYCGgY5K5niNGv+SexL6hhqxasl2MXqWqpZQGw5oaITZel+/Pm+jl+0qO5hpkorK/kdT8LqKbJOd3P9nF8rsKdZ4jnvuX30Vs++dvid4ugaxUbf1e/j9ja/4tzyUOJpu4yRCanzefy/PWnVRKJaZa+rnW73L0qAX++d1Fi1tuueWmvwGbBL1hUsl16iIpLHLd8243lUjxIeFLS+jSsqcxbdnocgdLG2nOEBWTCt+3OKWFgE6IBtV5tJp6qI0JtSNqdlGz1gKXvgNONti0D8haIDJuM3u+VE+6bPxRz1i7LvEkJeftIsl2HVOY1zT77PrueTyXPY3xSHDmHm/W8TEOwMNDKtO9y/mZx9jzjoWCTvN+q8QqlG5k13ioENj1YJYcfdk23ii1atnmMY8NvBatlpFOk+zXMAcSrNrGnCej0oG63Ks1j3Va6x0LAR0DCfoy/jJyURXy9zKUnTitbEWXeIVFEXHZ3ysUny1pvc2hoCox4OK0Q5suBRKHJgzggAMO2Cw+LWfGMyptKrNB1ZxXLuEkM10Y6JTAI1eKm7wZCp4SGNyegEdcS1eJZxIibPRnGe1zVfMpddHHpuAuJnaEedfd3ShryJ0uD0tju2wmLMs3c6WMa5X62hYKOogSW4IQ7SSi5W+lFZ6kw8MjsnJZbDV9XfSMK3RUDkSw2jSa8ASR5Tb/sE7ToOj/9SE/UVUG6lXsnj4N4JMy3//+99d1p/pM+4WDTkhK3VLAGtGa6f2pN0uHFY8zSDvT3czcrlFfT4mkE+OxdVEygaTTtWLedGey2r0xCqNtmY2eoEJroIyHKpR9Px+9AJ2gslgbFvmyrghi5qJ3xdm50vuM4su47dl0lPbkui2loEnmkmhwlyCKjxpsOpNQr/1Ze96Nty7ei0E5oQIYtgDB/fbbbynORi9ApyQ5g6YKakoS2MhBbTEo8rKAUt+RvH0L9e8JEiQXa6JYu0g8pbcomdGT1EbqHxX6PaJUmnQuUmTduVDCRehJKfX0eSa9Ap1IMGwCDsHxxx+/iXbyp9TkEQy2jK7RPm8CYxPvQcVqGvN9Nso9nb/n1knpB8R/HsehTZ8CGPJuu+1WSztp7q6iVnW5cWL6IzplPfYKdEwhUoxITZxXWU83SpBwclXMKZvq8K02CiRYM6pSPCNNqSf/9zMSjiJTDNJdMqPbxjF8PpoC6lJJZKUJSCWS6IkRL5PJoXegE846SDPzP3ruXJLdTI1lvLeRE7CZ9cjmjmcxd3WpDqCWS59LxM6fotN94yhgWSbAQZFegs4APNPdrF16y8aV7S4ORCS4xiDcVLkATspwyG9TBVHIw9AGCnShQG9Bp8vgh2dmQwFqlXu0Xf186KGHrvkSCZhUKSVj2YKWjdvOhnJDr10oMIBOFyptoGdK8FCF7qijjqrrWjPqK8eguLeSsu5hYlPQBpVqA22QKUx1AJ0pEHEVu1gLSNbKVu5bBvMqrsWqzWkAnVVb0SnOpwxCKw37Zb7PFF83dLVBKDCAzgZZ6GGaAwX6QoEBdPqyEsM4BgpsEAoMoLNBFnqY5kCBvlBgAJ2+rMQwjoECG4QCA+hskIUepjlQoC8UGECnLysxjGOgwAahwAA6G2Shh2kOFOgLBQbQ6ctKDOMYKLBBKDCAzgZZ6GGaAwX6QoEBdPqyEsM4BgpsEAoMoLNBFnqY5kCBvlBgAJ2+rMQwjoECG4QCA+hskIUepjlQoC8U+H+giG3uqpR1GgAAAABJRU5ErkJggg==;" vertex="1" parent="1">
          <mxGeometry x="123.08" y="163.5" width="86.92" height="43" as="geometry" />
        </mxCell>
        <mxCell id="677b7b8949515195-1" value="" style="whiteSpace=wrap;html=1;rounded=0;shadow=0;labelBackgroundColor=none;strokeColor=#000000;strokeWidth=1;fillColor=none;fontFamily=Verdana;fontSize=12;fontColor=#000000;align=center;comic=1;" parent="1" vertex="1">
          <mxGeometry x="20" y="20" width="1060" height="810" as="geometry" />
        </mxCell>
        <mxCell id="jwIwZIohR9LSqZSeyEhS-9" value="" style="shape=ext;double=1;rounded=1;whiteSpace=wrap;html=1;" vertex="1" parent="1">
          <mxGeometry x="940" y="30" width="130" height="40" as="geometry" />
        </mxCell>
        <mxCell id="677b7b8949515195-4" value="Doorkeeper" style="text;html=1;points=[];align=left;verticalAlign=top;spacingTop=-4;fontSize=14;fontFamily=Verdana" parent="1" vertex="1">
          <mxGeometry x="80" y="40" width="60" height="20" as="geometry" />
        </mxCell>
        <mxCell id="677b7b8949515195-7" value="username" style="text;html=1;points=[];align=left;verticalAlign=top;spacingTop=-4;fontSize=14;fontFamily=Verdana" parent="1" vertex="1">
          <mxGeometry x="980" y="37.5" width="90" height="25" as="geometry" />
        </mxCell>
        <mxCell id="677b7b8949515195-10" value="" style="whiteSpace=wrap;html=1;rounded=0;shadow=0;labelBackgroundColor=none;strokeWidth=1;fillColor=none;fontFamily=Verdana;fontSize=12;align=center;comic=1;" parent="1" vertex="1">
          <mxGeometry x="40" y="100" width="170" height="170" as="geometry" />
        </mxCell>
        <mxCell id="677b7b8949515195-9" value="" style="line;strokeWidth=1;html=1;rounded=0;shadow=0;labelBackgroundColor=none;fillColor=none;fontFamily=Verdana;fontSize=14;fontColor=#000000;align=center;comic=1;" parent="1" vertex="1">
          <mxGeometry x="20" y="70" width="1060" height="20" as="geometry" />
        </mxCell>
        <mxCell id="677b7b8949515195-11" value="&amp;nbsp;Device1" style="text;html=1;points=[];align=left;verticalAlign=top;spacingTop=-4;fontSize=14;fontFamily=Verdana" parent="1" vertex="1">
          <mxGeometry x="40" y="100" width="70" height="25" as="geometry" />
        </mxCell>
        <mxCell id="677b7b8949515195-12" value="&lt;font style=&quot;font-size: 10px;&quot; color=&quot;#00cc00&quot;&gt;online&lt;/font&gt;" style="text;html=1;points=[];align=left;verticalAlign=top;spacingTop=-4;fontSize=14;fontFamily=Verdana" parent="1" vertex="1">
          <mxGeometry x="45" y="115" width="60" height="30" as="geometry" />
        </mxCell>
        <mxCell id="jwIwZIohR9LSqZSeyEhS-3" value="" style="verticalLabelPosition=bottom;shadow=0;dashed=0;align=center;html=1;verticalAlign=top;strokeWidth=1;shape=mxgraph.mockup.graphics.simpleIcon;strokeColor=#999999;rounded=0;labelBackgroundColor=none;fontFamily=Verdana;fontSize=14;fontColor=#000000;comic=1;" vertex="1" parent="1">
          <mxGeometry x="30" y="30" width="40" height="40" as="geometry" />
        </mxCell>
        <mxCell id="jwIwZIohR9LSqZSeyEhS-7" value="" style="verticalLabelPosition=bottom;shadow=0;dashed=0;align=center;html=1;verticalAlign=top;strokeWidth=1;shape=mxgraph.mockup.containers.userMale;strokeColor=#666666;strokeColor2=#008cff;" vertex="1" parent="1">
          <mxGeometry x="950" y="37.5" width="25" height="25" as="geometry" />
        </mxCell>
        <mxCell id="jwIwZIohR9LSqZSeyEhS-17" value="" style="shape=image;verticalLabelPosition=bottom;labelBackgroundColor=default;verticalAlign=top;aspect=fixed;imageAspect=0;image=data:image/png,iVBORw0KGgoAAAANSUhEUgAAABsAAAAaCAYAAABGiCfwAAAEx0lEQVRIS6VWWUycVRT+WCwpCZaExiZsAR4EKrJYokKQzSZS2XFhCzOjFJhKAsNSTY3MDGisrSzThNhZiA4QCtIHYKAFSWUPLqGyRoQHIGVJTUpCJaEvWL3nJvOX4R/bId5kXuY/53xn+c53r90/7MDGMzMzg56eHsE6NTUVoaGhNnoDdkcBy8vLw18PH8Ld3R1bW1t4/sQJtLa2/j+wnZ0drK2tibL28vKCXqcVwAqL5FhfX7cAo+p9fHzg6uoqSkJUGQHFxMRgdXUVcXFxaG5u5o4EHhUVhVt9vUKQxKRkTExM8ODkJ5VKMTw8DF9fX4yOjooALcDMQL7MubKyAjqdHqbeXg5I31paWtBQXyeAlVdUglpLychkUiQz8KKiQtTW1mGVJXcY0AKsu7ubO0+MjwkBl5aWoK6uxuLiH2gy6BEeHi58oyrKyisQGBgAtUoFf39/4VvUG9HoZYnGxsYK/4naGB0djddfexW5ubk2D/6wYVtbG37+5VeMjT1JmmxEYDSb4OBg3L7VBxcXFyHO7u4urmu1WFpaxubmJjw8PFglL+KCXG5hRyzNys7B7Owsn+XBY5X6SqUSc8y4ulrNbamVirJyBAUFISQkGG5ubtje3mYB5zA/P49rmgahhSqVGsEhIaipqXk2G82Lq9freXVU0bm3EyGR5CEsLAz37q1jY2Mdnp5e8Pb2wvT0NCNQCwb6b/MKiaEFBQWwtvC8MqPRiK6uLs4ecgg/cwbZ2Vk828+qlHBwcEBSUiKMxma+ArQaZEsUl0ol6Oy8CScnJ3zxeQ3vQnt7B6bu3uWJkm1GRgZfCw5mZ2eHGtYyYhqpw8HzzrvvIScnB48e7fEgGxsbwmdPT0+e1PHjzujoaMfNzk4LX5rf1NQUlKy1pIoC2Mz0b1bZFxr2CgyM8iZTL/z8/KDRaAQ7hUKBlZUVpKRQ6wrxtBgWYE1NBt6+w+ethHNQKEpBs6R5TU5OCiYREREICAjgrNRoruGHgX6RP1V2niUigJWUlHCZWVhYYAsayEFpRjQzYuGpUy8gMjISly59ivj4eN5uCjI0NITLl7/kCdy//ydnJc3sBmv38vIyE4JFzuD09HTOThH1R0ZGQEoyODiI9httXN1lH3zIZKgIJ0+64c6dH4Xsz559Ew8ebDNZ08H43bd83plZ2UhISEBaWpqFelhdavqT9mx+bg5qtYoHNplM+OrKVWRmvs9vAmdnZ+zt7bGKfkJfXx8++fgim1sKt1Wrq/EyEwWb9sysIN8zdh1kJrXnm+taTnnzIVp/dEFuoYnUCapujiX7TAUhbXzp9GnI5UVW2WnLn1qtDr+zeR1MTNRGmlVxcTFXDvOhTOvqG/js1CqlqIqKyou8AxXlZRadICVpbGzkszMfC4IQvZOTk1FYcJ7PgNRbpzegtLQU9vb2GB8fR31dreBMFTx37Bi/z2j/qBu5TABoxnpDE79iDr5RRGwkQGolqYOjoyO/MMmBLk9vb2+Mjz2ZWSFj6BVGHLqzyE8ikWB/f5+rDF0vhx9DVlWfHOknk8ksRkRgtV9fFVpJ6nL4cUY6SyDWXl1Hel1R5o8f/83fJsTO/v4BfsXYeo4ERgtfVVUlxM7PzxdV/zTgI4HZWsF/2f0LXy+D0U1urOUAAAAASUVORK5CYII=;" vertex="1" parent="1">
          <mxGeometry x="190" y="104.5" width="16.62" height="16" as="geometry" />
        </mxCell>
        <mxCell id="jwIwZIohR9LSqZSeyEhS-18" value="" style="shape=image;verticalLabelPosition=bottom;labelBackgroundColor=default;verticalAlign=top;aspect=fixed;imageAspect=0;image=data:image/png,iVBORw0KGgoAAAANSUhEUgAAAHIAAACQCAYAAADUUT/0AAAF1klEQVR4Xu2dOywsYRTHzyZIFIhiYzsRiZJWRKMXrUQUVOh0olcpJDoqFLQiUUq8iWdkhZCQUBCLeERYb9eZ3Jlc9s7sznwz68zn/yWi4Hx75vzmd+a5M5GPz0EYoa9ABCBDz9BYAIDUgyNAasIRIAFSlwposhzYRgKkJhXQZDFg5G8AOTw8TK2trZosargXY2hoiFpaWmwXwtFIgJQDHyDlsFDKBCCVyicnGCDlsFDKBCCVyicnGCDlsFDKBCCVyicnGCDlsFDKJHCQxcXFNDY2ppRkmIIvLi5oe3ub4vG48fv09NR1+t9r1tTURNfX147zBA6ypKSEzs7OXC+M9IBkMkk7OzsGrH9/EomEcurfaxaLxSjdvACZpuzv7+90eHiYAuzg4ID4b0EMgFSs6vn5eQowtu7h4UFxZnfhAJlhvRjM7u7ul20Zt0cGKWEA5DcKZls0dzzMbRm3yqDaoh8rwq8HyaCmpqas9shtkXdKwjZ+Pcj29nYaHBwMG7eUfAESIG1XYuULy9k8joSRLQApqR+jtWrSWqPRqHGKzxyVlZXEp/6chlZndnRprV66A0B6qZrAGIAUCMVLSgDppWoCYwBSIBQvKQGkl6oJjAFIgVC8pASQXqomMAYgBULxkhJAeqmawBiAFAjFS0oA6aVqAmMAUiAULykBpJeqCYwBSIFQioqKaGBgwMqMr+rc3t7iMpZAVo4p4cKyJheWARIgbU3HzVc/0JdhJIyEkT8gnu1HwkgYCSNhZJpn0eFOc/erCForWitaq3tvgouAkTASRgbnl/uZYSSMhJHuvQkuAkbCSBgZnF/uZ4aRMBJGuvcmuAgYCSNhZHB+uZ8ZRsJIGOnem+AiYCSMhJHB+eV+ZhiZxsiCggIqLS01ntWKx3z+s4Jl8pIzKXcIdHV1UU9PD+Xk5NDR0RHV19cbzySXOGCkjZENDQ00MTHxhdnx8TFVVFTQ8/OzOJYAaQNyfn6eamtrU4A1NzfT6OgoQIaltfI3mQoLC1OA9fb2ErdcaQNG/sfISCRC9/f3lJ+fn8Krv7+fOjs7pXEkgLRprVtbW1RVVZUCrKOj48v3EKUQBUgbkG1tbSnAbm5uqKysjPi3tAGQNiD5kGNkZIT4HVM8+L0fjY2NNDk5KY2hkQ9AOpwQ4G1ldXU1lZeX0/T0NJ2cnIiECJCfFdDlCcowEifNcdJcUp+FkTASRsJIfD/S93UArRWtFa3Vd60UJoSRMBJGKgjkeyiMhJEw0netFCaEkTASRioI5HsojISRMNJ3rRQmhJEwEkYqCOR7KIyEkTDSd60UJoSRMBJGKgjkeyiMhJEw0netFCaEkZoYmZeXR3V1ddaqwDdUp/seJ15ypmCOpFCAlERDIReAVCiepFCAlERDIReAVCiepFCAlERDIReAVCiepFCAlERDIReAVCiepFCAlERDIReAVCiepFCAlERDIReAVCiepFCAlETjby65ublUU1NjZba0tEQvLy+OmQKkQJC4HqnJ9UiABEjb/hL5+Bx2fw3L81oFdk/HlGAkjNTDSH6sdV9fH/HzWSW/RSBdh/j1RpoF4kdfLyws0OzsrPGzsbFBb29v6eon5u8AaYPi7u6OFhcXLbDr6+tpj8t+kipAZlh9fsY5H2Sbxq6urqa93TDDqX35N4D0WMZkMknLy8sW2JWVFXp8fPQ4m3oYQKrX0Jjh6emJGObMzIwBlyEz7GwNgAyo0nyX99ramgGV4XJb5vYc1ADIoCr7bd7X11fiHSZzG8t7yLxD5dcASL8q6XIePrTZ3Ny0wPIrnPgQyOsASK+V8zmOT0bwSQnTWAZ7dXWV8acAZMalyu4/8unqeDxugZ2bm6PLy0vbJAAyu3w8fxqD5ZeRmnvFDDaRSFjzZR3k+Pg4dXd3Oy5QNBolbi0YzhXY29uz9or39/eNba45YrHYF9D/m0npDgHACU8FHK9HhmcxkClAarIOACRAalIBTRYDRgKkJhXQZDH+AAaBbvZ89PVWAAAAAElFTkSuQmCC;clipPath=inset(4.86% 6.14% 4.86% 6.14%);" vertex="1" parent="1">
          <mxGeometry x="60" y="141" width="68.46153846153847" height="89" as="geometry" />
        </mxCell>
        <mxCell id="jwIwZIohR9LSqZSeyEhS-19" value="&lt;div style=&quot;font-size: 10px;&quot;&gt;&lt;font style=&quot;font-size: 10px;&quot;&gt;Status&lt;span style=&quot;white-space: pre;&quot;&gt;	&lt;/span&gt;&amp;nbsp;&amp;nbsp; : open&lt;/font&gt;&lt;/div&gt;&lt;div style=&quot;font-size: 10px;&quot;&gt;&lt;font style=&quot;font-size: 10px;&quot;&gt;Last change: &lt;/font&gt;&lt;font style=&quot;font-size: 10px;&quot;&gt;23:46 22 &lt;/font&gt;&lt;font style=&quot;font-size: 10px;&quot;&gt;Apr&lt;font style=&quot;font-size: 10px;&quot;&gt;&lt;br&gt;&lt;/font&gt;&lt;/font&gt;&lt;/div&gt;" style="text;html=1;points=[];align=left;verticalAlign=top;spacingTop=-4;fontSize=14;fontFamily=Verdana" vertex="1" parent="1">
          <mxGeometry x="45" y="230" width="155" height="30" as="geometry" />
        </mxCell>
        <mxCell id="jwIwZIohR9LSqZSeyEhS-21" value="" style="whiteSpace=wrap;html=1;rounded=0;shadow=0;labelBackgroundColor=none;strokeWidth=1;fillColor=none;fontFamily=Verdana;fontSize=12;align=center;comic=1;" vertex="1" parent="1">
          <mxGeometry x="230" y="100.5" width="170" height="170" as="geometry" />
        </mxCell>
        <mxCell id="jwIwZIohR9LSqZSeyEhS-22" value="&amp;nbsp;Device2" style="text;html=1;points=[];align=left;verticalAlign=top;spacingTop=-4;fontSize=14;fontFamily=Verdana" vertex="1" parent="1">
          <mxGeometry x="230" y="100.5" width="70" height="25" as="geometry" />
        </mxCell>
        <mxCell id="jwIwZIohR9LSqZSeyEhS-23" value="&lt;font style=&quot;font-size: 10px;&quot; color=&quot;#ff3333&quot;&gt;offline&lt;/font&gt;" style="text;html=1;points=[];align=left;verticalAlign=top;spacingTop=-4;fontSize=14;fontFamily=Verdana" vertex="1" parent="1">
          <mxGeometry x="235" y="115.5" width="60" height="30" as="geometry" />
        </mxCell>
        <mxCell id="jwIwZIohR9LSqZSeyEhS-24" value="" style="shape=image;verticalLabelPosition=bottom;labelBackgroundColor=default;verticalAlign=top;aspect=fixed;imageAspect=0;image=data:image/png,iVBORw0KGgoAAAANSUhEUgAAABsAAAAaCAYAAABGiCfwAAAEx0lEQVRIS6VWWUycVRT+WCwpCZaExiZsAR4EKrJYokKQzSZS2XFhCzOjFJhKAsNSTY3MDGisrSzThNhZiA4QCtIHYKAFSWUPLqGyRoQHIGVJTUpCJaEvWL3nJvOX4R/bId5kXuY/53xn+c53r90/7MDGMzMzg56eHsE6NTUVoaGhNnoDdkcBy8vLw18PH8Ld3R1bW1t4/sQJtLa2/j+wnZ0drK2tibL28vKCXqcVwAqL5FhfX7cAo+p9fHzg6uoqSkJUGQHFxMRgdXUVcXFxaG5u5o4EHhUVhVt9vUKQxKRkTExM8ODkJ5VKMTw8DF9fX4yOjooALcDMQL7MubKyAjqdHqbeXg5I31paWtBQXyeAlVdUglpLychkUiQz8KKiQtTW1mGVJXcY0AKsu7ubO0+MjwkBl5aWoK6uxuLiH2gy6BEeHi58oyrKyisQGBgAtUoFf39/4VvUG9HoZYnGxsYK/4naGB0djddfexW5ubk2D/6wYVtbG37+5VeMjT1JmmxEYDSb4OBg3L7VBxcXFyHO7u4urmu1WFpaxubmJjw8PFglL+KCXG5hRyzNys7B7Owsn+XBY5X6SqUSc8y4ulrNbamVirJyBAUFISQkGG5ubtje3mYB5zA/P49rmgahhSqVGsEhIaipqXk2G82Lq9freXVU0bm3EyGR5CEsLAz37q1jY2Mdnp5e8Pb2wvT0NCNQCwb6b/MKiaEFBQWwtvC8MqPRiK6uLs4ecgg/cwbZ2Vk828+qlHBwcEBSUiKMxma+ArQaZEsUl0ol6Oy8CScnJ3zxeQ3vQnt7B6bu3uWJkm1GRgZfCw5mZ2eHGtYyYhqpw8HzzrvvIScnB48e7fEgGxsbwmdPT0+e1PHjzujoaMfNzk4LX5rf1NQUlKy1pIoC2Mz0b1bZFxr2CgyM8iZTL/z8/KDRaAQ7hUKBlZUVpKRQ6wrxtBgWYE1NBt6+w+ethHNQKEpBs6R5TU5OCiYREREICAjgrNRoruGHgX6RP1V2niUigJWUlHCZWVhYYAsayEFpRjQzYuGpUy8gMjISly59ivj4eN5uCjI0NITLl7/kCdy//ydnJc3sBmv38vIyE4JFzuD09HTOThH1R0ZGQEoyODiI9httXN1lH3zIZKgIJ0+64c6dH4Xsz559Ew8ebDNZ08H43bd83plZ2UhISEBaWpqFelhdavqT9mx+bg5qtYoHNplM+OrKVWRmvs9vAmdnZ+zt7bGKfkJfXx8++fgim1sKt1Wrq/EyEwWb9sysIN8zdh1kJrXnm+taTnnzIVp/dEFuoYnUCapujiX7TAUhbXzp9GnI5UVW2WnLn1qtDr+zeR1MTNRGmlVxcTFXDvOhTOvqG/js1CqlqIqKyou8AxXlZRadICVpbGzkszMfC4IQvZOTk1FYcJ7PgNRbpzegtLQU9vb2GB8fR31dreBMFTx37Bi/z2j/qBu5TABoxnpDE79iDr5RRGwkQGolqYOjoyO/MMmBLk9vb2+Mjz2ZWSFj6BVGHLqzyE8ikWB/f5+rDF0vhx9DVlWfHOknk8ksRkRgtV9fFVpJ6nL4cUY6SyDWXl1Hel1R5o8f/83fJsTO/v4BfsXYeo4ERgtfVVUlxM7PzxdV/zTgI4HZWsF/2f0LXy+D0U1urOUAAAAASUVORK5CYII=;" vertex="1" parent="1">
          <mxGeometry x="380" y="105" width="16.62" height="16" as="geometry" />
        </mxCell>
        <mxCell id="jwIwZIohR9LSqZSeyEhS-26" value="&lt;div style=&quot;font-size: 10px;&quot;&gt;&lt;font style=&quot;font-size: 10px;&quot;&gt;Status&lt;span style=&quot;white-space: pre;&quot;&gt;	&lt;/span&gt;&amp;nbsp;&amp;nbsp; : closed&lt;/font&gt;&lt;/div&gt;&lt;div style=&quot;font-size: 10px;&quot;&gt;&lt;font style=&quot;font-size: 10px;&quot;&gt;Last change: &lt;/font&gt;&lt;font style=&quot;font-size: 10px;&quot;&gt;15:22 5 &lt;/font&gt;&lt;font style=&quot;font-size: 10px;&quot;&gt;Apr&lt;font style=&quot;font-size: 10px;&quot;&gt;&lt;br&gt;&lt;/font&gt;&lt;/font&gt;&lt;/div&gt;" style="text;html=1;points=[];align=left;verticalAlign=top;spacingTop=-4;fontSize=14;fontFamily=Verdana" vertex="1" parent="1">
          <mxGeometry x="235" y="230.5" width="155" height="30" as="geometry" />
        </mxCell>
        <mxCell id="jwIwZIohR9LSqZSeyEhS-27" value="" style="shape=image;verticalLabelPosition=bottom;labelBackgroundColor=default;verticalAlign=top;aspect=fixed;imageAspect=0;image=data:image/png,iVBORw0KGgoAAAANSUhEUgAAALsAAAC0CAYAAADMxl2/AAAgAElEQVR4Xu2dd7QV1fm/N0UFEwXBgojRCMauWLAigtgSK8EWUaIujSlqQpYaXepayR+Gb6KiJkZjoj8LaIIJ2BuJHVSwRRGwF+xdEVCqv/283M9xM5x77+ln5pw9cNa599yZOTN7P/udd79td/jaby5usQWaoAU6RNiboJfjLVoLRNgjCE3TAhH2punqeKMR9shA07RAhL2KXa25f4cOHZb7luTnSRtBcv8qXmJTnTrCXsXuXrx4sQPcjh072rcANT/zOe+8vl76tVu6dGnuKjp07GDH8O9r/y+CX7kOirBXri1XOBMQG7j+BeghuKF0X+FvfgDYwOjkB4N/198j+OV1VoS9vPZr9+h8KsvcuXPdRx995D777DP31VdfmWRfeeWV3Zprrmmvb33rW7mBEQFvt4kL3iHCXnBTFb9jCPqXX37p3nzzTTd9+nT33rvvuQ8//NDN+WKOW7BggVu0aJFbZZVV3FprreXWXnttt/7667uNN97YbbDBBvZ53CrTAhH2yrRjXhWGD9HP33vvPTdjxgz31FNPueeff959/tnnJtEXL1lsUp19Onfu7Lp06eJWXXVVg75v375u6623dv3793c9e/R0nVfqHPX3Mvsqwl5mA+rwpLqyZMkSk9ivv/66mzJlinvwwQftZ01SO3Xq5HhJTZFuzjsDAPh79erl9tlnHzdwt4Fu3d7rmqoTqjVRxSmu8yLsxbVXq3uH5kMgBNg33njD/fvf/3b33Xef6eerr766SXGBrZPJWqN3jmewoPoA+NFHH+2GDh3qevfubQMkHCQVuvymOE2EvQrdDOjz5s1zl156qZs8ebL74osv3EorrZQzMQKrTI+SzhwD4KH1hf3Q6QH+qKOOcvvuu69bd911o3WmxD6LsJfYcK0dBqzo47fccoubOHGi++CDD3KSWBJbqgqA62fgR3XhXaZKvoO/Mwj69evnhg8fbmoN+/FZlPDFdV6Evbj2anVvwNVk85133nHnn3++e+mll0xvlyQHYn5nP6wuffr0cT169LBzfvLJJ6bT8xSQXi+g9T5kyBB32GGHuX59+5nDSQOjQrfQ8KeJsFeoi6WCfP755+7hhx92l112mYGtDeDZAH7zzTd32267rVlcunfvbtB++umn7sUXX3RPPPGEQY/6IocUx6G/Y4485JBD3IEHHhjt8CX0W4S9hEbLd4gmqLNnz3ZXXnmlWV9QN6SKSAp/73vfM+kM7ExYkfIaCDib/vvf/7p77rnHngrhAEE1wtm05557up///Odmokx6Xit0K3U/zaKZM91S74dYZdAgpEPFrifCXrGmdAburFmz3OjRo927775rMGrjb8B66qmnup122sl169bNK+TLjkEl0cBAwt92221mxdHEVno9lhxs76NGjXLf/e53c0+KCt5C3U81/5//dJ+fdppdx0r+CbjmpEkVu6YIe8Wa0pnqgePot7/9rVu4cOFyNnE8oUj1c88910Dv1NHb2FuCvjQoCArz8V/u8ccfd+PHj3ePPvqoW2211XKBY6hFTFR/8pOfuB133LHhYA9BV7f0uPZat4o3u1Zii7BXohVbzoG5cerUqe73v//9crZ09Plvf/vbbuDAgSbZu3btmtc5JLXkhRdecDfffLNJeNQVjtfkdqONNnLHHnusG8QjPs+WVUdTPtC5vV7+SdnBD/hKbBH2SrSiPwegAvtjjz1maox0deBD/UBCDx482P3iF7+wsIBwSwL68ssvG+gTJkxYDnbOg/oycuRIO1c+nT2LsLcG+hp+7tNlv/0q1EMxB7ViDVkN2LHT8xSQZG9E2GsFOh0dJXuFcK8k7K+88oq79dZbc5JdyR2NBnstQY+wVwh0qSyVUmOaAfZagx5hj7BXsAUKP1U9QI+wF94/7e5ZDTUGWzvWGKX3NYIaUy/QI+ztIlz4DtWEXVYX7OxZtsbUE/QIe+Est7tnpWHH9Pivf/3LJLu2LMNeb9Aj7O0iXNwOuPfxev7xj3/MhQrIzk6oALbxk08+2WLbFTgWfoPCfF977bVcyACmx9Zgz3d1abSzpwH0CHtxLC+/t8JevHtf7v45c+YY7BdeeKHBDLwEcymhGhc/3k908K++/MotWrwodyyfEVKAp5W4GrKb/vOf/9jAsI7yzilCEDbccEP34x//2AZOvuJLaYM9LaBH2EuEPSxs1KlzJ/OQshGZSFwL4QJKvyPAS6G6gIxasnDBQvflV19aLA2DQjAr4ZoBQkgvqXxsStfjnIQFh+EC0ud55+9kNaVlSxPoEfYSqQhT5wCMxAsSNnDz/+9//7OQgRDCMPoxrA7G14f7qXqYcliR9lJ5lOVEENk222zjdt5pZwsK671eb9e1S9dc9TCdv8Rbq9hhaQM9wl5i16JOADjOHxIuSKx+//33LQEDVUaFjwRv+DVhOp3S8hTrLk+p0u1UPk+mR6lFPAGYA1BQidoyWGgIEOPdQofrvKUR9Ah7K1CEkpiYc0JxUV3mzZ9nEpzECl5AzgvAGQCS0qgukv7KKw3Nh4JZcerJQSH4wzDhsOQG8KMCcR4CzIBehZUIIwZ80v14Kuhewqynao6FtIIeYc/T68uB7v++dImfTC74yr391tsOK8n056a75557zqp7ASOSGqABS4nSAivMQpL1RVJaKowGQZhoLVVE9WOk0yvPld/1VOC82o8UP3R61JxNNtnEBsAaa6xhE99QvanWJDbNoEfYW4Fd0CI9UU2AHOvIM888Y2XrAIyJYFL90OkkqaWWKBE71MlDfT0cHGEx1HCwhOG8UoV0/nCgMACBG+m+8847ux122MF95zvfsSeAPaVIc+N/BdPduJe0gx5hzwO7ykkDDfo4+aDkhaKqYPMGJMHL4fmAVzUwnZ590LO7d+vuVlt9NRsovHgi8EId4XsZXHzv/PnzLSWPF/p/KL01yDiOY0J9Xk8ATJ0qqYceT4ElErVbSxopV63JAugR9lYkOxNPJPkjjzxiNm8AFEih7hxK8hAw1Il11lnHJo9U8eLnNXuuaZPHLl27uJU6r+QwWYYVwKTjAy/nAnhMj0x833rrLVObuBaeLHzOPiRs63rCQSdVTKoOkFOZ4OCDD7ZEb64v3MqR8lkBPcIe9DiAIEWpCsCL1DjKYghCZfpL/UDaykaOZYRKXejIqAzozejK2NUBDanOEwGprMlpWxNGINXTgWsidJgXkp5S16+++qq9GATAz2BkzsCLQYDUF+gCn79xjag2pPQxkVWxpY4dfGGmlnzYYqR8lkCPsPsWAAZgodIu3k9qvmAvx6kjNUMTQ9m/pTMDtEx/AL7eeutZBV5eqhaQg6fFqqMnRDFQ2QBjhY6v/WTZww/wlL2e/eZsswrxJOL6GRDcj6xBXC+DSw4nfsdys/3227vdd9/dbbnlljYYw+TvQq8ra6BH2H0LUKsFKQnouOc//vjjnMdTsNBQDAg5eVADkOCbbbaZvdCLe/bsmcsttadBy+oZyQlhqSoDViEmlqb6+IHDgFuwcIF7++23rQz2TF9rhUGK2sM9cQ1hxTB+5+mCesRkdauttnJDBg9x/bftb2bKUKVqD/gsgt70sAMFdV6A/P7778/ZrkOVBQg0CQQWJPl2221n6gAezGQZaak9AJnT872KUO4WWl5Ub8YA9afmbwxSTKJ4b1nwACuSnFu6H97Dye6GG2zoDhl2iNWxYQArtKGta80q6E0NO4AABgkS06ZNM8lmcSstk1Hp1sABNNRm3Hvvvc2yAeRSDwR0aJ8vVXq3BlnS9h+ePze4Wg5GZ+e+CBHGVMq1c1+824JlXsILfu4NNYZYGwLLUL/amktkGfSmg13qBQtzYVKkNguPfsCXBKdR9PhXYBW2aiwZSHUsKklpXq7UruTx3CPzDSQ91qR7773X9Hp5U/WECG37AP/DH/7QDd1zqFv/O+vnBkU4qLIOelPCziSO4qH/+Mc/HHUZkYTqVDlxkO5IP8JpsVzsuuuuNvkEGFXkrSSglTyXBjSTWYBHTWPlj4ceeihXUTgMNNNTg4kr5bB5MR+RZ5hrawTQmw52HEPPPvusu/76621SKgdSCBudjG6+xRZbGOhYLgCdLfRuVhLQSp+LybF5gf0/5iVYa4CdF7q8vLGqR4OuzqAH8r322svUNeDn8y99GT7VXgyvs9IFjCrdBvnO1zR1Y7BCMIFDdWEyim1cna7wAGDmkc4ElE7HAYPlIqkjS0+vRQeV8h1KHNF186TCSoMejz6Pc0ox+IqkpC04jqfZfr4KF9WCu/qJ+5zTT1/hErIIesNL9jDSENf/HXfcYa9kKWkaQvEuu+yyixs2bJjbdNNNTTdHSqLja7Pio37DCZPGjXuWYykZO09Y8t133+0eeOABi/dRAJnMlAo/YG5yCt7fq65qGNAbGnY5UgCbsNybbrrJQMcqgUdTHlB5K5HoFB6l9rlWw1BPV9q6Us1BEgaM5fseBsJdd91l1cZQ5WxAt9jk2R/g9/Sqz4neSZXcsirRc/3ob/SbIuLV7IU6nFtS7sYbb3R33nmnOWDkFdXyLzziUVXQz0844QSztiSzfbIEe3vNTJswSWfSytwFfZ6BLovUHj5E4gSv5jQa6A0r2elQWVZw/1OSAquEPgNe2dPR3UmE/tGPfmT287wTmwqHw7YHZNX/7sUbMTVTHpnirvX1z5XrOsTH3uST6H6BKNfryCOXewJU/Rqr8AUNOUGVREdHveKKK2yBAKwSofscyc4jHND3339/i/tWTEmynRtJsnNvUt0AHh2eSft2PqjsJL+yX3Ib79tlq1NOcbvsvMuyEOGUzlUKGRsNCzsRgsShjxs3zqIXk8CisxMfwmJc2NHDYkRhwzUa6IKdd9oAK82jZ53lBnoLVXK72JtcH/dPPmzvxMMzac/y1jCwhxMzVBR00QsuuCBndQj1cCQbk1BWjh60+yDXo+eyQCjprVnu0GKunTabe8MNbu5vfrPCYWN8OPDTfv6CNxb7O0IBL7KEQhaFQEPAnrRAYH3B4nD11Vebg0jxI/Ic0oHHHHOMO/CAA60js/xoLgbu5L6teUYBHYkuKw3v/fv3d0d6vR0fBCHBphJmTKVpCNjpRBmV0MWffPJJ09WJe9GSLqGLnPzMM844w0Jz01RUqBxwiz22NdCv8JP0e716o0pkShkkhJlgseOPPz6X3qc2z4qUbxjY1dksmIuZEXOjyliEwU8kXBx33HFmU8cS01aUX7EAZWX/1kD//Jxz3I1+kkpKoqI6Q/UP4cBKfUh5DYas3DPX2RCwS9dG0hD/8U+/liYxMKTFyQzJZIycTawvJ510kv2swZClDiv3WlsDvfvf/+4W+ok6KYm0HzmvqIASBsyDEA6EUdB+rU3oy72+ah7fMLDTKUT5YUbjheMkDAtgQJB0jN65xx57rJDJU81GTsu52wJ9lX33tTZhYk8MDWs6hbVwFG9DUBxruRJSEBZdTcs9tnUdDQG7dHZS61hhjhBedHFc38rOQcoDOTonXtJmU1/aC9PVJJ5wCpI+xowZY7muYZIK7YxaQ7LHvn5wKKwiLfUl2xtwDQP74kWL3dhxYy3+heRjHsFSU7C+kE2Prfj73/9+bhA0C/DtgS5IFAmJ7X3s2LGW4ALsvFQrh3eWlP/lL39pVRSyMjltGJ2dG8HciAUG6a4gL6S7Hr9IoiOOOMLKXSSzddqTCFn+e6GgS7Jzr0h38lgpvU0OQLLQKoLkN942P2DAANPjs7I1jGRnYkpgE6G8qoeC1KHKFqZGwnbxBIYTqyxJpVKAKhT08Nya0JPkcb6PiXn66aetDRVKgcrCZHXEiBEW925+iozEDjUM7H/31oRJkyZZgJPCVhXhB+TATnhAGB9TCkBZOaYU0MN7A3AmqeN9phJtGpoakfxYtQAeJ1OEvUZUoJKQhXTeeeeZFKIj6Biglg6KXR3glT1fo0ur29eUCzoXjvpHovaf//xnq46mTUF2tCXtiilSjru63XCBX5x5yY7HlKyb0aNHW610WQykwvTp08cSMqjzIt2zwLbJ5G6VAF3WLcy3f/nLX9zkyZNNd1dZPaUxYsY96KCDrKxeFrbMw45UpzP++te/Wly2OgTJxN9wcY8cOdJtvvnmmXnclgpOpUAPv59cALK8qMSgJA/amJBpErOHDx9u6mEWtszBHgZ9kQ9K+O6EiRMsQQMVRrEuqDBII9zbmBuR8FnRLUsBpxqgcx34LDBDoiJihVFFAgQJix4ceuihbs8he+bydNMcL5M52PWI5R14SdC45JJLrCAQKo0mUjIv/vrXv3YkURMT06iwVwt0wKVS8DXXXGNJ2mpzPmcCixkXyU6BJVUb0z6lDNhqH5NN2Fsy/Klz+IEPXDrn7HPca6+/ZlJHHj9gp37h2WefbSpMshB/tRu2VuevFugSKjjkkOw460iICdVEbOzEuaMmYtJtL9m7Vm3S2vdkDvZcbLonfcnSJaZLnnnmme6Tjz+xks6SMOxHDZRzfCQfEijtlbxKAaGaoIdPUCoREIZBwjpqop6a7IM1BqsMCy6kWarbtWWtukDo/URHJ5H6d7/7nU2Y2MKMI4ocjRo1yjqiA/8ylmzQ1gCoNuh8tyqgkd5IAdgZM2aYmVESnCcpKY1kfCllL82qYuZgD7OOmICyojSePtVnpLGlzhAiwCOWUm6NFAdTC9CBfclivyS9LxDFJBXpjtVLRV1pT1QcBAqwY9pNe1pj5mCXxOEdSwyxMBdeeGEuZFfOJNQWvKaHH364LRSQ9kdsoWpMrUDnelRbB6cSkp1URyS7BAewY3akDAkRpRH2QnuxiP2kyhC/gZUAa4xWkeM0KjVNnilmRywxjQB7LUEX7ExISeRAsvNKSnaiSQ877DBr57S3caYlO/HWrJpx6aWXWlaS4qqBHRPkz372M5M4WuI8zfpke2O91qCHagwh0yTEkOooqS41hlQ9QqcxP6ZdVcw07Cryc/nll1uoaXIRgVNPPdVyTW3BW2bjGYnOS4JfD9DDCSrtfPvtt1u6HoIkVGOwdBEygCqT9jbONOzY2KloRRy7liwHeNVYJ8Fgt912yzTs9QIdcGV1Id0R2FnAAUNACDvrvMrW3t7Tqd5/b0jYkT5MpAQ7Kk7aH7H5QKgn6BH2eg/Nlu/XBLU1yd4IsNcb9Ah7hL0mLZAG0CPsNenq9r+kkSV7WkCPsLfPYU32aFTY0wR6hL0mKLf/JY0Ie9pAj7C3z2FN9mg02FsF3SeRd2nxTNakYRNfEk2P9Wj1xHc2EuxpBT1K9hSALs8e7zI9UkZDRTgVCJa0s7N/2jyoaQa9FNhj8kYVBkhSsgv2MFwg7bCnHfQIexXALeWUWYc9C6BH2EshswrHZBn2rIAeYa8CuKWcMquwZwn0CHspZFbhmCzCnjXQI+xVALeUU2YN9iyCHmEvhcwqHJMl2LMKeoS9CuCWcsqswJ5l0CPspZBZhWOyAHvWQY+wVwHcUk6ZdtgbAfQIeylkVuGYNMPeKKBH2KsAbimnTCvsjQR6hL0UMqtwTBphbzTQI+xVALeUU6YN9kYEPcJeCplVOCZNsDcq6BH2KoBbyinTAnsjgx5hL4XMKhyTBtgbHfQIexXALeWU+WAPSynnK5LE91QqU6kZQG8Ldv5GSXBKVrMspMrfafGCSrVzKWy0dUwmy99pRTaWPWEVZmoQqpQyN0ujs8YP5e8okq/1lOigcrdmAZ12QmjQZtTBv/POO924ceMMcDZKWVP3kYUeWPThxBNPtNqQzv9nhZM0Ap852EPpwWK/119/vZWt1ip5NDj7sHjYaaed5vr3758roK+S1qUCn8ZyF6XeSyHHUSCWNmM5HxYiuPrqq20RMUAGdgYDFZIHDRrkWJVQT4OOHTqmckmfzMGudThZI2nW87Nssd/p06ebBJJUB/hevXq5c8891/Xt29eSscvdmg30UI0B6vvuu89deeWV7t133zXQtSohP2+//fbujDPOcKuvvnqU7OWCljweyc0j9Mknn3QXX3yxrYXKpnLVSJ5+/fq58847z1bdKFd9aUbQ1eZSGR977DF37bXXumeffdbUQjYt645AYeEHlpxR0ntUYypAvdSY999/302aNMldddVVuZWXVUYDlQb1ZfTo0bmlIkstWd3soKs8xnPPPWcrb6AyUgKczxEiPGlZs4rVN4YdMsyt0mWV5cqDp2nF68ypMTxSgXratGm2EgQruQE3MPO5Jk0HH3ywG3HUCNep8zeT0mKlTTODnpTsLDXDEpGULdH6VbQnwgfoWVvprLPOcmuttVbeJ2mxbV8BubjCKTIHO41Lw7MSBJaY+fPn51QYGpTBwGP1hBNOcAMGDMhJHw2GQhsxgu6XhvRSW09EJqmojWPGjDG1EeA1R2I/rF/HH3+8rWGF6ii4k5DXE/rMwc5yhffee6+77bbb3MyZM02qy2og+zoL0aJDaklIU338P9b0LGSLoC9rJS0NKd38lVdeMbWR5Thpdy2wTPvy8yabbOKOPfZYt9lmm7lVu67qlfoVfRsR9kIIbNkHywtrcqK+YPNVg/MoRfpstNFGDhWG1dukL2L7zdfw+b42gv5Nq0iI6BMkOktxYpVZsGCBWWWkymi+dMABB9gykTxd6ZMQ7nqCbhPqrCznTsOzFCSSZerUqWbvpYGRPlJR+H3o0KHuiCOOcCxZKItBoWMpgp6/peSx5v2dd95xf/jDH9yLL76Ym6RqEovwwfzIuqh77bWXW2eddXLLdZbr4yi0D9vaL9Ww5ySzv4PPPvvMJAr2XvR06YyoLkgYlnbn8ckShXj02IoptBlBbx2T0KLC0xMr2NixYx0WMdQZ2dwZDHLo7b///u7QQw+1JTvl8KsEsOWcI/Ww03iEBdxxxx3ulltuMWtL0pYrt/bIkSPdfvvtZxaBYrYIeuGtxRMWwYIz7+GHH7afETzS2wEbFQepvs8++7ijjz46p98X/i3V2TP1sM+ePdukORNSVBepJpI2cjChJ2LrxQSGpC90i6AX2lLLnpRqd5xL48ePt7mThA1CSH/n5/XWW8+AZw6lQL3Cv63ye6YadvTD+++/3xb2ffPNN01ChKqJJlDbbrut6YmoMVrztJCmiqAX0krL76P2nzt3rnvkkUesbwBfm5xN2g/gjzrqKAvI00rjxX9rZY5IJew0FDq6QH/++efNSyrJorAAJPjGG29sj0pc1eiHhU5KI+jlAYSgoY8II0DFpI+kymgyKju95lJbb711XVcbTxXsgnn+vPnu0ccedRMnTnSzZs0yHT00Y+lRucEGG+Rm/sXEv0TQywM9PJql3rG7E/7LhDW0umhuNW/ePLf77rubOoNQwgFVavhGOVeeGti/XupDc79eag4ibOmXXXaZI4RXW+gBRUck0Ouggw6yxIFitgh6Ma1V2L4A/+CDD1oIMJNT2dMllOhTDAsAz7xqu+22c4QBF+rkK+wq2t8rNbBzqTTU66+/bpGMr776qtnQNemR1KfRmIQiJbDlMvEpdEIaQW8fiFL2AGYSPG679TZ38803u08/+zQXr0S/yR/C0xfv9vDhwx0qTa231MAO6DgqbrjhBovB0ORTHjp+V5w63tEhQ4ZYlowas72Gi6C310Kl/50+4Gn7ycefuAkTJ9hc68MPP8yZJDkz+jz7YUAgZmnEiBHm7a6lV7WusCtcl4Z64YUXLBuGyDrFZKj52Y99CDACdIKNmOVLT2+vwSLopYNc6JGooaTjET+DmXjy5Mnm8ZYFjfMAO0KrR48ebrfddrP5FvZ4Ra2214+FXktr+9UNdnNB+5iVJUuXuJdeeskgx57ODB8nReg95WcmNagtqC80kLJl2mugCHq5iBR//IwZMyxnFT2eySkwK+RAZ0PC/+AHPzA7PEnb8rJWM6ygLrBrhAMq9nM8ozz6kARAzSazFTePfZZkDMJ2yS0FdD7XbL+17oigFw9qpY545plnzJqGl1XzLhkZ6H/gB3CiJJHyCDCe1MVY1Yq91rrArkcajglSvQjZlY6nRF4BzwR0hx12cD/96U9d7969lzNZtSXVI+jFolDZ/TEkIOGx0Dz99NM5P4ls8fQd/Y9Ux0+Caop603CSXZYXQnWR6qxUrVEtgAk44mc8b0QxYp9FIiistK2uiaBXFtxizyYVdcHCBabDn3/++ZZwo6e1LGv0L58pLBs1VU/2Yr+zkP1rItmXLvH6ud9UT4S46IceesjS6rDRhiGkciARLrrTTjs54qMH7DDAdenaxRomH+yhhI+gF9Lt1d2HySr/2OhH4mfGjR3n3pj9hhkaJL0FO32Kl5Ugvr333tv6OLTGVepqawK7bp6b+/TTT93jjz9uhY3eeuutXIa6TIsCFzssYaKUaejWrZvr1LHTsrgYP+NPbjomgl4pLMo7Ty5gzGomfW2TVFTVe+65xxyFYbqf8hGQ6Jtuuqn1OXVoQg9re0aIQq+2JrBrlBIO+tRTT5lpitGuSl38nZdMkSReHH744aarY2604CJg9//y3TifRdAL7fLq75eEnd8RclQmwOKG41ABY4Kd3+EBCX/MMccY+KrylinYmaxwwUTHoaOjwiRtqxrtxKIT9D94j8GuW/du1jNhrmMy1cselT7U9HNf/Su5reGTPbr4R2PcatsCUktDhyCqCXkJmJiBHh2ez9hXfS8LDV5WrDT4UqS2VgL4mkh2dPYv5n5hOjoRckh4YGdUy77KDWN+UryLhQBQN9APElSXMLQ37LqvfC2TeWeeuUJvruaTC1b2Nty41b4FBK8ymEKfCZBjZsY4QcaZQj3CfeCCcnq77rKrWWiUP1wu8DWBneYmFOCaa66xCDnCdWkQNm5AjzDCdXEyYG7MbS16Xz6b+mq+0db5299W6M13Ro1yc70KFLf6tIBCODQRFcjSw8lTQId/+eWXl3MecrXsiyaA85An/IYbbpgTdJmBnUkpRUixuaKbCXZ1B1KAQcBERfqcnA8aFOHN7k0jtYkAAAljSURBVOglxBF+ACW3/+d1vum+QlXc6tcCegpLQIVSm6tCXcG0rMyz8ErZF8kuVQbdXefLDOxATpAXE9NklKJuQgFFcjxopCeDvfbwEXYnedt8chvjHRSPtyRw1K+rm/ubk1JcT269ywgBA8lBoJZDsuNkYqJKhGvmYCeX9LrrrjN9TZJbN6eG0M2HuYya2euROMjHzpzgK8kmt0v69HFP+HiLuNW3BULYJdklvFR9QMIrCbuEHrZ5vKr4WPr4fs0c7Dy25DEloyVpVlIIqGbkUmFC2JHoJ3r1Jbld7GftEfT6Qq5vV38pDiYp2QWuiqLq6a39+J30SiaoJHmEeauZUGN0g6TYUZ8R5wKfKXIxHPEa7cnHYWugX+TjZZ6iLnjcUtECodkxOUENL1CT1aSZEiFI3Z+jRxztevTs0WrNyFJutibWGDmVuDFiJYAdeysmSCYjkgZh2AA3owYZ6j1wJ3unRHL7P5+8MdVbbsod8aU0XDwmfwvk09mT4b3qW96lwyPpUVmIjyHOnRDgSkdAVh12u/mWdXa4OTKSCOUltBfw8azJLqtHWvi+ka8LPsCXa0huU3wu49veVBk2XASw/i3QFuyhISKcp2FqJnQb2DE/4zW3HFUfxp0vPKTUu6wN7DmFDnG97BegJ1GDyUgYux6qMZ19AsDKvq5gclvoV9RY4pN3tUXJXmr3V/64JOyh4Ar1cj6X+RnHoszO6Ouh9S2MkSn3ausCexJOPeZCKwyxLnNOP32F++vui+GHIQC1AF1zjvBxXIvvLbdz6/XUU3u1d/25gDAvAS1OEi0AediysAQBhIVWX27vu+y8/guWfUOKtrQFdamJZDFSZ6SoyexSluvKNsp0Z2WgVrp9Uwd72kBXgxPfk9b1PUMoZNNuS4ZF2Cs9jEo4X1pBL+FW6nqILByS9km4I+x17R6X6nh0dEtqGhLEFi6CUOcmW+HrpV5hzl177bXdwIED3TbbbNNqeEbarr/a15MKNSbtEp1UsrvvutsKAClfFqCSWxokJtdAbAl5nSTADB48eIUk5jRcZ7XBznf+usOedtBpNMB+4P4H3LXXXWv+AZwdSUdJe2U9atm5xImToE6paAKq0jgoa9ke+q66wp4F0HGILVq8yEKTL7/8cqtBmc+zlyYLDaoWKgxVGSg111rAVT2Aq+d31g32TIDe0jNIcRKFL7roIiuhnXSOsFuaVAMSnEl+GDZsmIXIRsm+rAXqAnuWQLfoS292nDtvrlUXZqKqZRFD54kSxuspuTTo0NlZX4qld8jjjNaYOsGeJdBlurO6Nz7MgdX6SBYmtidcNEuFWMnAIs5Dpr+Kurpblk4PgUZdCc2M/A0Vi2s75ZRTrB56vqJDaXoK1VI41FSyZw10dYQcNawfRP1CLXujz7HWENPB2k4AJuArPWmVB5d4InI4qaeopTG5Vj1dWGn6xBNPNLOjamKGUEXYqzzEsgq6pDuAkCBMcSdKgSQdN8TmU+dGpfrC1MJKNS1qE6ATLfqnP/3J5hF8jybMwA78mBxZkWT99de3r07WT4ywV6pH8pwny6DrdgANXf2mm26y2jdkW6nuCTChJ1PzhhW2jzzySAtZrTRUwEx6I3XsWZYxrKGjwYfacqYvLULVYy2oFieoNdLZGwV0TUapksBSKnhTVZNQycPASKXh4447zupUaqEsK3u4YtW+osULNTKpeU7lYywuYY4ng41QWUyNpLRp4eN8MTKVHoRF30idDqiqzt4IoIeSHUhYO4hMK2rgUHI5XBQhrGoGcFtsscWyUs0+VNV0504d7XSFBJoakCzW4AcQxzEJZnJMoSnUF54cAM6GVEd96elLiIzyNXOoj8lk2RxfQeKMJrd1Yq3uX1s12BsJ9BB4AJo5c6abMGGCLXhLQnBofQE6QGWSiO6MOkFhVkGZrwJWPgo0GUVVYVAxwCZNmmROLS3IpdJwQI/KQq2VX/3qVzZBDvM/JcmbVaKrfasCeyOCHgKPyQ+P6t98NTKqW6nMtoBGGmP+Y/lKAESlobKV1A5B15aE529Icy1nP23aNKuVqKXT9a7CoFtuuaUtysV3Jc2RzS7RqwZ7I4MeAk9deZLGb/S1JlFtZFOXFUaxM+RVAiJmwL59+1o0Irq8LCj5gEeSM4hYa4pBhYmRFEb2DY/jd6Q6g4r1icjK59wm1YN5QrNL9KrA3gygq+GQ3iSLU/hpypQp9rO2sKAn+6FW4MkkOAv3PcCj2qDPS91gcGBWZOL5ri8ChaoE5JR3DucF4VNBxWCBnFevXr2+MUW25J9VMmG57kp3mRdQMTWmmUBX6Q/eqUoL8FOnTrXSIGF57bAuDhIY1QPIAZ8XWfQCHrMm5kxUFcKIke7AjIVFq82FTwEGB+UmWDGa8hPY1EPJXyYXDXl4RWBvJtBDVUbeS1YQodoZag0qDZNFJDBAhnmrfMYxbICMvi2nkEybDBDglrrCIAnt+RxLdTU+oxYioGPuZLGGWi+PnrURUTbszQh6CLxc9EhlPKu33367TSplEQmfAhwnFSenR1J/vuWlwSG9XyXi5DySqREpjqeW8nA91uix/NLpLebNrIFYi+stC/ZmBl2dI8sH0KN+sLoIxVunT5+eU2u0yoikfLiAVmgpCZ8GfK7SIqqahq6v+BvWnOIJEi6oZvb8CHur46Zk2CPoK7YpUhyzJIFiTC4BHxWHz1BfpKqEwVlhZKSFEweqDz9jwsSBhOkSwLHbUzVLTiMdb/p8woFUC2mZpe8oCfYIettdDKTo7kh3XjiCUHP4DOilq2vCKQkuOzzSmokrE1AmspgWMV0COeCHT4MswVbvay0a9kV+tbuPDjpoheuOi3Xl6Uovaed8McekO9KeF7HwmCmR9lhgQgsLagkeWaw0mBGxywM5PwN/9ISWN1yKhv2LCy5wc33GTrhF0PN3gpI+pIuj15MMDfAEdWFelHrDJBTIea3pqxOv7stwh5lQYWm48rq8eY8uGvaFTz7pPvb5jdoi6K3DE+rgSsjmM8Wdh2ZJzoL6otAD3lXqOxmPzr7hQGhefIu786Jh5/SLvAt7sXdlr+TDSTv7BXrj1jbwpUrlEOjo8i+fspJgL/9rm+cMhYTzFtIaEfZCWqntfSLs5bdhm2eIsFe5gYs4fYS9iMYqZdcIeymtVp1jIuzVadfcWSPsVW7gIk4fYS+iseKu2W6BCHu2+y9efREt8P8Bog4W1K+4UEkAAAAASUVORK5CYII=;" vertex="1" parent="1">
          <mxGeometry x="330" y="160.5" width="51.93" height="50" as="geometry" />
        </mxCell>
        <mxCell id="jwIwZIohR9LSqZSeyEhS-28" value="" style="shape=image;verticalLabelPosition=bottom;labelBackgroundColor=default;verticalAlign=top;aspect=fixed;imageAspect=0;image=data:image/png,iVBORw0KGgoAAAANSUhEUgAAAHMAAACSCAYAAAB2W/XBAAAE1ElEQVR4Xu3doU4jURTG8VuPxBIaBA5HMCQgcHWICuowlVAHnpAACpB9AGwfoA7HO5AAorwAggQS2O0kLCtouZ255/Sbm38Nm82955z5fi3tTredxuffW+CWRQINMLNwLA4CzHwswczIEkwwc0ogo2PhORPMjBLI6FBKPTKbzWZ4enrKKAa9Q1leXg6Pj48zDQbmTHH5LQbTL2vzTmCaR+zXAEy/rM07gWkesV8DMP2yNu8EpnnEfg1kMLe2tsLu7q7fkdew02AwCLe3txMnl8E8PDwMl5eXNYzYb+Rerxeurq7A9IvcrlMtMfv9fri5ubFLpUaVO51O6Ha7xcS1xDw+Pg7n5+c1itxu1KOjo3B2dgamXcR+lcH0y9q8E5jmEfs1ANMva/NOYJpH7NcATL+szTuBaR6xXwMw/bI27wSmecR+DcD0y9q8E5jmEfs1aLVaod1uFw3H56uHw+HE5pJvgXFuttydBcxyuUnuAlOSpdxQYJbLTXIXmJIs5YYCs1xukrvAlGQpNxSY5XKT3AWmJEu5ocAsl5vkLjAlWcoNBWa53CR3gSnJ8j3U0tJSWFlZKf7i/v4+jEYjTrSLm00cj7fA6ir3w9xgghmdgMlXx/z/kT7ez/y24JEZfb/UXwimvlH0hGBGR6W/EEx9o+gJwYyOSn8hmPpG0ROCGR2V/kIw9Y2iJwQzOir9hWDqG0VPCGZ0VPoLwdQ3ip4QzOio9BeCqW8UPSGY0VHpLwRT3yh6QjCjo9JfCKa+UfSE2WOurq6G9fX18Pr6Gu7u7sLz83N0OHVbmC3mwsJCuL6+Dvv7+/9M3t/fw8nJSTg9PQ0fHx91s/p13mwxx9+2sbe392MA44O+uLj4NZy6LcgSc2Njo/iVOun29vYWFhcXw8vLS928ps6bJebBwcHUKweME9ne3p56qYg6KoNZR7UJM2eJya/ZzK6ewAugGl6kZtLHE/inSUaYX08rnDT4+QmWD9uKv1jK8gWQeOZm44FpFq1/YTD9MzfrCKZZtP6FwfTP3KwjmGbR+hcG0z9zs45gmkXrXxhM/8zNOoJpFq1/YTD9MzfrCKZZtP6FwfTP3KwjmGbR+hcG0z9zs45gmkXrXxhM/8zNOoJpFq1/YTD9MzfrCKZZtP6FwfTP3KwjmGbR+hfmUhj+mUt05P/NSjCkGQLMNDlKVAFTgiHNEGCmyVGiCpgSDGmGADNNjhJVwJRgSDMEmGlylKgCpgRDmiHATJOjRBUwJRjSDAFmmhzNqrRardBut4v6429bGQ6HE3uBacaQpjBvgaXJUaIKmBIMaYYAM02OElXAlGBIMwSYaXKUqAKmBEOaIcBMk6NEFTAlGNIMAWaaHCWqgCnBkGaI2mP2+/3iPCS3EDqdTuh2u0UUvV4NvzwYxJ8TADOje0ZtMNfW1sLm5mZoNBpF/NN+xqz5qpF6bep6s8w5GAymXrdF5i2wjB5AczsUMOcWffrGYKbPdG4VwZxb9Okbg5k+07lVBHNu0advDGb6TOdW0Q1zZ2cnjEaj8Pn5+e9gv/486ed4odIa9dmbzWZ4eHiY6c7U+HtQ3yIzbWWxWgJgqolUmAfMCuGpbQVTTaTCPGBWCE9tK5hqIhXmAbNCeGpbwVQTqTAPmBXCU9sKpppIhXn+ACdNm+G51SlMAAAAAElFTkSuQmCC;" vertex="1" parent="1">
          <mxGeometry x="250" y="139.5" width="71.68" height="91" as="geometry" />
        </mxCell>
        <mxCell id="jwIwZIohR9LSqZSeyEhS-30" value="" style="line;strokeWidth=1;html=1;rounded=0;shadow=0;labelBackgroundColor=none;fillColor=none;fontFamily=Verdana;fontSize=14;fontColor=#000000;align=center;comic=1;" vertex="1" parent="1">
          <mxGeometry x="20" y="800" width="1060" height="20" as="geometry" />
        </mxCell>
        <mxCell id="jwIwZIohR9LSqZSeyEhS-31" value="&lt;p style=&quot;line-height: 0%;&quot;&gt;&lt;font style=&quot;font-size: 10px;&quot;&gt;version 0.01a&lt;/font&gt;&lt;/p&gt;" style="text;html=1;points=[];align=left;verticalAlign=top;spacingTop=-4;fontSize=14;fontFamily=Verdana" vertex="1" parent="1">
          <mxGeometry x="30" y="800" width="155" height="20" as="geometry" />
        </mxCell>
        <mxCell id="jwIwZIohR9LSqZSeyEhS-32" value="&lt;p style=&quot;line-height: 0%; font-size: 10px;&quot;&gt;&lt;font style=&quot;font-size: 10px;&quot;&gt;shpd00@vse.cz&lt;br&gt;&lt;/font&gt;&lt;/p&gt;" style="text;html=1;points=[];align=left;verticalAlign=top;spacingTop=-4;fontSize=14;fontFamily=Verdana" vertex="1" parent="1">
          <mxGeometry x="985" y="810" width="95" height="30" as="geometry" />
        </mxCell>
        <mxCell id="jwIwZIohR9LSqZSeyEhS-34" value="" style="rounded=1;whiteSpace=wrap;html=1;" vertex="1" parent="1">
          <mxGeometry x="420" y="210" width="60.5" height="60.5" as="geometry" />
        </mxCell>
        <mxCell id="jwIwZIohR9LSqZSeyEhS-35" value="" style="shape=cross;whiteSpace=wrap;html=1;size=0.19612590799031643;fillColor=#666666;" vertex="1" parent="1">
          <mxGeometry x="430" y="220" width="29.5" height="29.5" as="geometry" />
        </mxCell>
        <mxCell id="jwIwZIohR9LSqZSeyEhS-37" value="&lt;font style=&quot;font-size: 36px;&quot;&gt;?&lt;/font&gt;" style="text;html=1;points=[];align=left;verticalAlign=top;spacingTop=-4;fontSize=14;fontFamily=Verdana" vertex="1" parent="1">
          <mxGeometry x="450" y="221.75" width="20" height="37" as="geometry" />
        </mxCell>
      </root>
    </mxGraphModel>
  </diagram>
</mxfile>
